<svg version="1.1" viewBox="0.0 0.0 831.7769028871392 183.46719160104988" fill="none" stroke="none" stroke-linecap="square" stroke-miterlimit="10" xmlns:xlink="http://www.w3.org/1999/xlink" xmlns="http://www.w3.org/2000/svg"><clipPath id="p.0"><path d="m0 0l831.7769 0l0 183.4672l-831.7769 0l0 -183.4672z" clip-rule="nonzero"/></clipPath><g clip-path="url(#p.0)"><path fill="#000000" fill-opacity="0.0" d="m0 0l831.7769 0l0 183.4672l-831.7769 0z" fill-rule="evenodd"/><path fill="#cfe2f3" d="m157.979 0l139.87402 0l0 118.519684l-139.87402 0z" fill-rule="evenodd"/><path stroke="#000000" stroke-width="1.0" stroke-linejoin="round" stroke-linecap="butt" d="m157.979 0l139.87402 0l0 118.519684l-139.87402 0z" fill-rule="evenodd"/><path fill="#000000" d="m186.75587 17.382965l1.65625 -0.140625q0.125 1.0 0.546875 1.640625q0.4375 0.640625 1.34375 1.046875q0.921875 0.390625 2.0625 0.390625q1.0 0 1.78125 -0.296875q0.78125 -0.296875 1.15625 -0.8125q0.375 -0.53125 0.375 -1.15625q0 -0.625 -0.375 -1.09375q-0.359375 -0.46875 -1.1875 -0.796875q-0.546875 -0.203125 -2.390625 -0.640625q-1.828125 -0.453125 -2.5625 -0.84375q-0.96875 -0.5 -1.4375 -1.234375q-0.46875 -0.75 -0.46875 -1.671875q0 -1.0 0.578125 -1.875q0.578125 -0.890625 1.671875 -1.34375q1.109375 -0.453125 2.453125 -0.453125q1.484375 0 2.609375 0.484375q1.140625 0.46875 1.75 1.40625q0.609375 0.921875 0.65625 2.09375l-1.6875 0.125q-0.140625 -1.265625 -0.9375 -1.90625q-0.78125 -0.65625 -2.3125 -0.65625q-1.609375 0 -2.34375 0.59375q-0.734375 0.59375 -0.734375 1.421875q0 0.71875 0.53125 1.171875q0.5 0.46875 2.65625 0.96875q2.15625 0.484375 2.953125 0.84375q1.171875 0.53125 1.71875 1.359375q0.5625 0.828125 0.5625 1.90625q0 1.0625 -0.609375 2.015625q-0.609375 0.9375 -1.75 1.46875q-1.140625 0.515625 -2.578125 0.515625q-1.8125 0 -3.046875 -0.53125q-1.21875 -0.53125 -1.921875 -1.59375q-0.6875 -1.0625 -0.71875 -2.40625zm19.146698 0.75l1.609375 0.21875q-0.265625 1.65625 -1.359375 2.609375q-1.078125 0.9375 -2.671875 0.9375q-1.984375 0 -3.1875 -1.296875q-1.203125 -1.296875 -1.203125 -3.71875q0 -1.578125 0.515625 -2.75q0.515625 -1.171875 1.578125 -1.75q1.0625 -0.59375 2.3125 -0.59375q1.578125 0 2.578125 0.796875q1.0 0.796875 1.28125 2.265625l-1.59375 0.234375q-0.234375 -0.96875 -0.8125 -1.453125q-0.578125 -0.5 -1.390625 -0.5q-1.234375 0 -2.015625 0.890625q-0.78125 0.890625 -0.78125 2.8125q0 1.953125 0.75 2.84375q0.75 0.875 1.953125 0.875q0.96875 0 1.609375 -0.59375q0.65625 -0.59375 0.828125 -1.828125zm3.015625 3.546875l0 -13.359375l1.640625 0l0 4.796875q1.140625 -1.328125 2.890625 -1.328125q1.078125 0 1.859375 0.421875q0.796875 0.421875 1.140625 1.171875q0.34375 0.75 0.34375 2.171875l0 6.125l-1.640625 0l0 -6.125q0 -1.234375 -0.53125 -1.796875q-0.53125 -0.5625 -1.515625 -0.5625q-0.71875 0 -1.359375 0.390625q-0.640625 0.375 -0.921875 1.015625q-0.265625 0.640625 -0.265625 1.78125l0 5.296875l-1.640625 0zm17.000717 -3.109375l1.6875 0.203125q-0.40625 1.484375 -1.484375 2.3125q-1.078125 0.8125 -2.765625 0.8125q-2.125 0 -3.375 -1.296875q-1.234375 -1.3125 -1.234375 -3.671875q0 -2.453125 1.25 -3.796875q1.265625 -1.34375 3.265625 -1.34375q1.9375 0 3.15625 1.328125q1.234375 1.3125 1.234375 3.703125q0 0.15625 0 0.4375l-7.21875 0q0.09375 1.59375 0.90625 2.453125q0.8125 0.84375 2.015625 0.84375q0.90625 0 1.546875 -0.46875q0.640625 -0.484375 1.015625 -1.515625zm-5.390625 -2.65625l5.40625 0q-0.109375 -1.21875 -0.625 -1.828125q-0.78125 -0.953125 -2.03125 -0.953125q-1.125 0 -1.90625 0.765625q-0.765625 0.75 -0.84375 2.015625zm15.406967 5.765625l0 -1.21875q-0.90625 1.4375 -2.703125 1.4375q-1.15625 0 -2.125 -0.640625q-0.96875 -0.640625 -1.5 -1.78125q-0.53125 -1.140625 -0.53125 -2.625q0 -1.453125 0.484375 -2.625q0.484375 -1.1875 1.4375 -1.8125q0.96875 -0.625 2.171875 -0.625q0.875 0 1.546875 0.375q0.6875 0.359375 1.109375 0.953125l0 -4.796875l1.640625 0l0 13.359375l-1.53125 0zm-5.171875 -4.828125q0 1.859375 0.78125 2.78125q0.78125 0.921875 1.84375 0.921875q1.078125 0 1.828125 -0.875q0.75 -0.890625 0.75 -2.6875q0 -1.984375 -0.765625 -2.90625q-0.765625 -0.9375 -1.890625 -0.9375q-1.078125 0 -1.8125 0.890625q-0.734375 0.890625 -0.734375 2.8125zm15.610092 4.828125l0 -1.421875q-1.125 1.640625 -3.0625 1.640625q-0.859375 0 -1.609375 -0.328125q-0.734375 -0.328125 -1.09375 -0.828125q-0.359375 -0.5 -0.5 -1.21875q-0.109375 -0.46875 -0.109375 -1.53125l0 -5.984375l1.640625 0l0 5.359375q0 1.28125 0.109375 1.734375q0.15625 0.640625 0.65625 1.015625q0.5 0.375 1.234375 0.375q0.734375 0 1.375 -0.375q0.65625 -0.390625 0.921875 -1.03125q0.265625 -0.65625 0.265625 -1.890625l0 -5.1875l1.640625 0l0 9.671875l-1.46875 0zm4.000717 0l0 -13.359375l1.640625 0l0 13.359375l-1.640625 0zm10.816696 -3.109375l1.6875 0.203125q-0.40625 1.484375 -1.484375 2.3125q-1.078125 0.8125 -2.765625 0.8125q-2.125 0 -3.375 -1.296875q-1.234375 -1.3125 -1.234375 -3.671875q0 -2.453125 1.25 -3.796875q1.265625 -1.34375 3.265625 -1.34375q1.9375 0 3.15625 1.328125q1.234375 1.3125 1.234375 3.703125q0 0.15625 0 0.4375l-7.21875 0q0.09375 1.59375 0.90625 2.453125q0.8125 0.84375 2.015625 0.84375q0.90625 0 1.546875 -0.46875q0.640625 -0.484375 1.015625 -1.515625zm-5.390625 -2.65625l5.40625 0q-0.109375 -1.21875 -0.625 -1.828125q-0.78125 -0.953125 -2.03125 -0.953125q-1.125 0 -1.90625 0.765625q-0.765625 0.75 -0.84375 2.015625zm9.125702 5.765625l0 -9.671875l1.46875 0l0 1.46875q0.5625 -1.03125 1.03125 -1.359375q0.484375 -0.328125 1.0625 -0.328125q0.828125 0 1.6875 0.53125l-0.5625 1.515625q-0.609375 -0.359375 -1.203125 -0.359375q-0.546875 0 -0.96875 0.328125q-0.421875 0.328125 -0.609375 0.890625q-0.28125 0.875 -0.28125 1.921875l0 5.0625l-1.625 0z" fill-rule="nonzero"/><path fill="#000000" d="m203.204 43.67984l0 -11.78125l-4.40625 0l0 -1.578125l10.578125 0l0 1.578125l-4.40625 0l0 11.78125l-1.765625 0zm7.786606 0l0 -13.359375l1.640625 0l0 4.796875q1.140625 -1.328125 2.890625 -1.328125q1.078125 0 1.859375 0.421875q0.796875 0.421875 1.140625 1.171875q0.34375 0.75 0.34375 2.171875l0 6.125l-1.640625 0l0 -6.125q0 -1.234375 -0.53125 -1.796875q-0.53125 -0.5625 -1.515625 -0.5625q-0.71875 0 -1.359375 0.390625q-0.640625 0.375 -0.921875 1.015625q-0.265625 0.640625 -0.265625 1.78125l0 5.296875l-1.640625 0zm10.360092 0l0 -9.671875l1.46875 0l0 1.46875q0.5625 -1.03125 1.03125 -1.359375q0.484375 -0.328125 1.0625 -0.328125q0.828125 0 1.6875 0.53125l-0.5625 1.515625q-0.609375 -0.359375 -1.203125 -0.359375q-0.546875 0 -0.96875 0.328125q-0.421875 0.328125 -0.609375 0.890625q-0.28125 0.875 -0.28125 1.921875l0 5.0625l-1.625 0zm12.853302 -3.109375l1.6875 0.203125q-0.40625 1.484375 -1.484375 2.3125q-1.078125 0.8125 -2.765625 0.8125q-2.125 0 -3.375 -1.296875q-1.234375 -1.3125 -1.234375 -3.671875q0 -2.453125 1.25 -3.796875q1.265625 -1.34375 3.265625 -1.34375q1.9375 0 3.15625 1.328125q1.234375 1.3125 1.234375 3.703125q0 0.15625 0 0.4375l-7.21875 0q0.09375 1.59375 0.90625 2.453125q0.8125 0.84375 2.015625 0.84375q0.90625 0 1.546875 -0.46875q0.640625 -0.484375 1.015625 -1.515625zm-5.390625 -2.65625l5.40625 0q-0.109375 -1.21875 -0.625 -1.828125q-0.78125 -0.953125 -2.03125 -0.953125q-1.125 0 -1.90625 0.765625q-0.765625 0.75 -0.84375 2.015625zm15.453842 4.578125q-0.921875 0.765625 -1.765625 1.09375q-0.828125 0.3125 -1.796875 0.3125q-1.59375 0 -2.453125 -0.78125q-0.859375 -0.78125 -0.859375 -1.984375q0 -0.71875 0.328125 -1.296875q0.328125 -0.59375 0.84375 -0.9375q0.53125 -0.359375 1.1875 -0.546875q0.46875 -0.125 1.453125 -0.25q1.984375 -0.234375 2.921875 -0.5625q0.015625 -0.34375 0.015625 -0.421875q0 -1.0 -0.46875 -1.421875q-0.625 -0.546875 -1.875 -0.546875q-1.15625 0 -1.703125 0.40625q-0.546875 0.40625 -0.8125 1.421875l-1.609375 -0.21875q0.21875 -1.015625 0.71875 -1.640625q0.5 -0.640625 1.453125 -0.984375q0.953125 -0.34375 2.1875 -0.34375q1.25 0 2.015625 0.296875q0.78125 0.28125 1.140625 0.734375q0.375 0.4375 0.515625 1.109375q0.078125 0.421875 0.078125 1.515625l0 2.1875q0 2.28125 0.109375 2.890625q0.109375 0.59375 0.40625 1.15625l-1.703125 0q-0.265625 -0.515625 -0.328125 -1.1875zm-0.140625 -3.671875q-0.890625 0.375 -2.671875 0.625q-1.015625 0.140625 -1.4375 0.328125q-0.421875 0.1875 -0.65625 0.53125q-0.21875 0.34375 -0.21875 0.78125q0 0.65625 0.5 1.09375q0.5 0.4375 1.453125 0.4375q0.9375 0 1.671875 -0.40625q0.75 -0.421875 1.09375 -1.140625q0.265625 -0.5625 0.265625 -1.640625l0 -0.609375zm10.469467 4.859375l0 -1.21875q-0.90625 1.4375 -2.703125 1.4375q-1.15625 0 -2.125 -0.640625q-0.96875 -0.640625 -1.5 -1.78125q-0.53125 -1.140625 -0.53125 -2.625q0 -1.453125 0.484375 -2.625q0.484375 -1.1875 1.4375 -1.8125q0.96875 -0.625 2.171875 -0.625q0.875 0 1.546875 0.375q0.6875 0.359375 1.109375 0.953125l0 -4.796875l1.6406097 0l0 13.359375l-1.5312347 0zm-5.171875 -4.828125q0 1.859375 0.78125 2.78125q0.78125 0.921875 1.84375 0.921875q1.078125 0 1.828125 -0.875q0.75 -0.890625 0.75 -2.6875q0 -1.984375 -0.765625 -2.90625q-0.765625 -0.9375 -1.890625 -0.9375q-1.078125 0 -1.8125 0.890625q-0.734375 0.890625 -0.734375 2.8125z" fill-rule="nonzero"/><path fill="#000000" fill-opacity="0.0" d="m8.874016 139.92389l812.18896 -0.12599182" fill-rule="evenodd"/><path stroke="#000000" stroke-width="1.0" stroke-linejoin="round" stroke-linecap="butt" stroke-dasharray="4.0,3.0" d="m8.874016 139.92389l812.18896 -0.12599182" fill-rule="evenodd"/><path fill="#000000" fill-opacity="0.0" d="m150.38846 65.42782l155.05511 0l0 31.30709l-155.05511 0z" fill-rule="evenodd"/><path fill="#000000" d="m168.11133 80.977196l0 3.984375q0 1.296875 -0.9375 2.203125q-0.9375 0.90625 -2.25 0.90625q-0.640625 0 -1.21875 -0.21875q-0.5625 -0.234375 -1.015625 -0.671875q-0.453125 -0.453125 -0.71875 -0.9375q-0.25 -0.484375 -0.25 -1.28125l0 -3.984375q-0.4375 0 -0.65625 -0.1875q-0.203125 -0.203125 -0.203125 -0.515625q0 -0.3125 0.203125 -0.5q0.21875 -0.1875 0.734375 -0.1875l1.828125 -0.015625q0.515625 0 0.71875 0.203125q0.21875 0.1875 0.21875 0.5q0 0.3125 -0.21875 0.515625q-0.203125 0.1875 -0.71875 0.1875l-0.5 0l0 4.09375q0 0.640625 0.515625 1.125q0.53125 0.46875 1.265625 0.46875q0.5 0 0.921875 -0.21875q0.4375 -0.234375 0.703125 -0.6875q0.171875 -0.28125 0.171875 -0.6875l0 -4.09375l-0.5 0q-0.515625 0 -0.734375 -0.1875q-0.203125 -0.203125 -0.203125 -0.515625q0 -0.3125 0.203125 -0.5q0.21875 -0.203125 0.734375 -0.203125l1.828125 0.015625q0.515625 0 0.71875 0.1875q0.21875 0.1875 0.21875 0.5q0 0.3125 -0.21875 0.515625q-0.203125 0.1875 -0.640625 0.1875zm3.0263672 0.6875l0 0.390625q0.34375 -0.328125 0.625 -0.453125q0.28125 -0.140625 0.640625 -0.140625q0.3125 0 0.609375 0.15625q0.296875 0.15625 0.578125 0.453125q0.375 -0.296875 0.734375 -0.4375q0.375 -0.15625 0.765625 -0.15625q0.78125 0 1.265625 0.421875q0.640625 0.546875 0.640625 1.421875l0 3.140625q0.4375 0 0.640625 0.203125q0.21875 0.203125 0.21875 0.5q0 0.3125 -0.21875 0.515625q-0.203125 0.1875 -0.703125 0.1875l-1.328125 0l0 -4.421875q0 -0.328125 -0.125 -0.4375q-0.109375 -0.125 -0.359375 -0.125q-0.21875 0 -0.421875 0.109375q-0.25 0.171875 -0.609375 0.65625l0 2.8125q0.4375 0 0.640625 0.203125q0.21875 0.203125 0.21875 0.5q0 0.3125 -0.21875 0.515625q-0.203125 0.1875 -0.71875 0.1875l-1.328125 0l0 -4.421875q0 -0.3125 -0.125 -0.4375q-0.109375 -0.125 -0.359375 -0.125q-0.25 0 -0.484375 0.15625q-0.234375 0.140625 -0.578125 0.609375l0 2.8125q0.4375 0 0.65625 0.203125q0.21875 0.203125 0.21875 0.5q0 0.3125 -0.21875 0.515625q-0.21875 0.1875 -0.71875 0.1875l-1.265625 0q-0.5 0 -0.71875 -0.1875q-0.21875 -0.203125 -0.21875 -0.515625q0 -0.3125 0.21875 -0.5q0.203125 -0.203125 0.65625 -0.203125l0 -3.40625q-0.453125 0 -0.65625 -0.1875q-0.21875 -0.203125 -0.21875 -0.515625q0 -0.296875 0.21875 -0.484375q0.21875 -0.203125 0.71875 -0.203125l1.328125 0zm12.088867 1.640625q-0.34375 -0.21875 -0.71875 -0.3125q-0.375 -0.109375 -0.78125 -0.109375q-0.828125 0 -1.296875 0.265625q-0.21875 0.109375 -0.21875 0.25q0 0.15625 0.296875 0.3125q0.21875 0.109375 0.96875 0.203125q1.390625 0.1875 1.9375 0.390625q0.71875 0.25 1.109375 0.75q0.390625 0.5 0.390625 1.046875q0 0.75 -0.65625 1.265625q-0.953125 0.71875 -2.46875 0.71875q-0.609375 0 -1.125 -0.109375q-0.515625 -0.09375 -0.953125 -0.296875q-0.09375 0.078125 -0.21875 0.140625q-0.109375 0.046875 -0.234375 0.046875q-0.328125 0 -0.53125 -0.21875q-0.1875 -0.21875 -0.1875 -0.71875l0 -0.484375q0 -0.5 0.1875 -0.71875q0.203125 -0.21875 0.515625 -0.21875q0.25 0 0.421875 0.140625q0.171875 0.140625 0.265625 0.484375q0.328125 0.28125 0.78125 0.421875q0.453125 0.140625 1.03125 0.140625q0.96875 0 1.5 -0.3125q0.25 -0.140625 0.25 -0.3125q0 -0.265625 -0.359375 -0.453125q-0.359375 -0.171875 -1.5 -0.296875q-1.6875 -0.171875 -2.25 -0.6875q-0.5625 -0.484375 -0.5625 -1.21875q0 -0.75 0.625 -1.25q0.859375 -0.6875 2.265625 -0.6875q0.484375 0 0.921875 0.09375q0.453125 0.09375 0.859375 0.28125q0.140625 -0.09375 0.25 -0.140625q0.109375 -0.046875 0.203125 -0.046875q0.296875 0 0.484375 0.21875q0.1875 0.203125 0.1875 0.71875l0 0.34375q0 0.453125 -0.109375 0.609375q-0.21875 0.3125 -0.59375 0.3125q-0.25 0 -0.453125 -0.15625q-0.1875 -0.15625 -0.234375 -0.40625zm4.838867 4.203125q-0.1875 0.21875 -0.296875 0.28125q-0.109375 0.0625 -0.28125 0.0625q-0.3125 0 -0.515625 -0.203125q-0.1875 -0.21875 -0.1875 -0.71875l0 -0.953125q0 -0.5 0.1875 -0.71875q0.203125 -0.21875 0.515625 -0.21875q0.25 0 0.40625 0.140625q0.171875 0.125 0.265625 0.4375q0.09375 0.296875 0.1875 0.40625q0.1875 0.203125 0.6875 0.421875q0.515625 0.21875 1.125 0.21875q0.9375 0 1.53125 -0.4375q0.390625 -0.265625 0.390625 -0.65625q0 -0.25 -0.1875 -0.484375q-0.1875 -0.234375 -0.609375 -0.375q-0.265625 -0.109375 -1.21875 -0.28125q-1.140625 -0.21875 -1.734375 -0.515625q-0.59375 -0.296875 -0.9375 -0.84375q-0.328125 -0.546875 -0.328125 -1.1875q0 -1.0 0.828125 -1.75q0.84375 -0.765625 2.1875 -0.765625q0.546875 0 1.0 0.125q0.46875 0.109375 0.84375 0.359375q0.28125 -0.265625 0.546875 -0.265625q0.3125 0 0.5 0.21875q0.203125 0.21875 0.203125 0.71875l0 1.046875q0 0.5 -0.203125 0.71875q-0.1875 0.21875 -0.5 0.21875q-0.265625 0 -0.453125 -0.15625q-0.140625 -0.125 -0.21875 -0.46875q-0.078125 -0.34375 -0.203125 -0.5q-0.1875 -0.25 -0.59375 -0.421875q-0.390625 -0.1875 -0.90625 -0.1875q-0.765625 0 -1.203125 0.359375q-0.4375 0.34375 -0.4375 0.71875q0 0.265625 0.171875 0.515625q0.1875 0.234375 0.53125 0.375q0.234375 0.09375 1.3125 0.3125q1.078125 0.203125 1.65625 0.453125q0.578125 0.25 0.953125 0.796875q0.390625 0.546875 0.390625 1.28125q0 1.046875 -0.734375 1.671875q-0.96875 0.8125 -2.46875 0.8125q-0.578125 0 -1.140625 -0.140625q-0.546875 -0.140625 -1.0625 -0.421875zm12.635742 -5.59375q0.25 -0.234375 0.515625 -0.234375q0.296875 0 0.484375 0.21875q0.203125 0.203125 0.203125 0.703125l0 0.90625q0 0.5 -0.203125 0.71875q-0.1875 0.203125 -0.5 0.203125q-0.28125 0 -0.484375 -0.15625q-0.140625 -0.125 -0.234375 -0.5q-0.078125 -0.390625 -0.390625 -0.5625q-0.546875 -0.328125 -1.40625 -0.328125q-1.0 0 -1.59375 0.578125q-0.59375 0.578125 -0.59375 1.46875q0 0.8125 0.5625 1.296875q0.578125 0.46875 1.90625 0.46875q0.875 0 1.4375 -0.171875q0.328125 -0.109375 0.609375 -0.375q0.296875 -0.265625 0.546875 -0.265625q0.28125 0 0.484375 0.21875q0.21875 0.203125 0.21875 0.5q0 0.453125 -0.640625 0.875q-0.9375 0.625 -2.765625 0.625q-1.625 0 -2.53125 -0.671875q-1.234375 -0.921875 -1.234375 -2.5q0 -1.5 1.0 -2.46875q1.0 -0.984375 2.59375 -0.984375q0.59375 0 1.09375 0.109375q0.5 0.109375 0.921875 0.328125zm4.760742 -2.90625l0 2.984375q0.4375 -0.265625 0.890625 -0.390625q0.453125 -0.125 0.90625 -0.125q0.71875 0 1.28125 0.25q0.578125 0.234375 0.953125 0.765625q0.375 0.53125 0.375 1.34375l0 2.625q0.53125 0 0.6875 0.109375q0.328125 0.203125 0.328125 0.59375q0 0.3125 -0.21875 0.515625q-0.203125 0.1875 -0.703125 0.1875l-1.609375 0q-0.5 0 -0.71875 -0.1875q-0.203125 -0.203125 -0.203125 -0.515625q0 -0.390625 0.328125 -0.59375q0.171875 -0.109375 0.703125 -0.109375l0 -2.53125q0 -0.546875 -0.25 -0.765625q-0.328125 -0.28125 -0.953125 -0.28125q-0.46875 0 -0.828125 0.1875q-0.359375 0.171875 -0.96875 0.765625l0 2.625q0.546875 0 0.703125 0.109375q0.328125 0.203125 0.328125 0.59375q0 0.3125 -0.21875 0.515625q-0.203125 0.1875 -0.71875 0.1875l-1.578125 0q-0.515625 0 -0.734375 -0.1875q-0.203125 -0.203125 -0.203125 -0.515625q0 -0.390625 0.328125 -0.59375q0.171875 -0.109375 0.703125 -0.109375l0 -6.0625l-0.25 0q-0.5 0 -0.71875 -0.1875q-0.21875 -0.203125 -0.21875 -0.515625q0 -0.3125 0.21875 -0.5q0.21875 -0.1875 0.71875 -0.1875l1.640625 0zm13.370117 6.46875l-5.75 0q0.21875 0.546875 0.765625 0.890625q0.5625 0.328125 1.515625 0.328125q0.78125 0 2.078125 -0.34375q0.53125 -0.125 0.734375 -0.125q0.28125 0 0.46875 0.203125q0.1875 0.1875 0.1875 0.484375q0 0.28125 -0.203125 0.46875q-0.265625 0.25 -1.328125 0.484375q-1.0625 0.21875 -2.03125 0.21875q-1.6875 0 -2.703125 -0.9375q-1.0 -0.953125 -1.0 -2.34375q0 -1.484375 1.078125 -2.40625q1.09375 -0.921875 2.515625 -0.921875q0.859375 0 1.578125 0.296875q0.71875 0.296875 1.0625 0.65625q0.484375 0.5 0.8125 1.25q0.21875 0.515625 0.21875 1.203125l0 0.59375zm-1.546875 -1.40625q-0.328125 -0.59375 -0.84375 -0.890625q-0.515625 -0.296875 -1.234375 -0.296875q-0.71875 0 -1.234375 0.296875q-0.515625 0.296875 -0.84375 0.890625l4.15625 0zm9.651367 -5.0625l0 7.453125l0.234375 0q0.5 0 0.71875 0.203125q0.21875 0.1875 0.21875 0.5q0 0.3125 -0.21875 0.515625q-0.21875 0.1875 -0.71875 0.1875l-1.640625 0l0 -0.34375q-0.484375 0.28125 -1.015625 0.421875q-0.515625 0.140625 -1.0625 0.140625q-1.578125 0 -2.546875 -0.90625q-0.96875 -0.90625 -0.96875 -2.265625q0 -1.421875 1.015625 -2.421875q1.015625 -1.015625 2.46875 -1.015625q0.546875 0 1.0625 0.171875q0.53125 0.15625 1.046875 0.5l0 -1.75l-0.234375 0q-0.515625 0 -0.734375 -0.1875q-0.203125 -0.203125 -0.203125 -0.5q0 -0.328125 0.203125 -0.515625q0.21875 -0.1875 0.734375 -0.1875l1.640625 0zm-1.40625 5.9375q0 -0.859375 -0.609375 -1.453125q-0.609375 -0.609375 -1.484375 -0.609375q-0.875 0 -1.484375 0.609375q-0.609375 0.59375 -0.609375 1.4375q0 0.765625 0.546875 1.265625q0.546875 0.5 1.546875 0.5q0.984375 0 1.53125 -0.5q0.5625 -0.5 0.5625 -1.25zm9.557617 -3.28125l0 4.796875q0.453125 0 0.65625 0.203125q0.21875 0.203125 0.21875 0.5q0 0.3125 -0.21875 0.515625q-0.21875 0.1875 -0.71875 0.1875l-1.328125 0l0 -0.328125q-0.609375 0.28125 -1.15625 0.40625q-0.546875 0.140625 -1.03125 0.140625q-0.6875 0 -1.203125 -0.28125q-0.5 -0.296875 -0.796875 -0.8125q-0.21875 -0.359375 -0.21875 -0.921875l0 -3.015625l-0.234375 0q-0.5 0 -0.71875 -0.1875q-0.21875 -0.203125 -0.21875 -0.515625q0 -0.296875 0.21875 -0.484375q0.21875 -0.203125 0.71875 -0.203125l1.640625 0l0 4.171875q0 0.4375 0.21875 0.65625q0.21875 0.203125 0.65625 0.203125q0.421875 0 0.90625 -0.171875q0.5 -0.171875 1.21875 -0.609375l0 -2.859375l-0.515625 0q-0.5 0 -0.71875 -0.1875q-0.21875 -0.203125 -0.21875 -0.515625q0 -0.296875 0.21875 -0.484375q0.21875 -0.203125 0.71875 -0.203125l1.90625 0zm6.135742 -2.65625l0 7.453125l1.671875 0q0.515625 0 0.71875 0.203125q0.21875 0.1875 0.21875 0.5q0 0.3125 -0.21875 0.515625q-0.203125 0.1875 -0.71875 0.1875l-4.765625 0q-0.5 0 -0.71875 -0.1875q-0.21875 -0.203125 -0.21875 -0.515625q0 -0.3125 0.21875 -0.5q0.21875 -0.203125 0.71875 -0.203125l1.6875 0l0 -6.0625l-1.125 0q-0.5 0 -0.71875 -0.1875q-0.21875 -0.203125 -0.21875 -0.515625q0 -0.3125 0.203125 -0.5q0.21875 -0.1875 0.734375 -0.1875l2.53125 0zm11.213867 6.46875l-5.75 0q0.21875 0.546875 0.765625 0.890625q0.5625 0.328125 1.515625 0.328125q0.78125 0 2.078125 -0.34375q0.53125 -0.125 0.734375 -0.125q0.28125 0 0.46875 0.203125q0.1875 0.1875 0.1875 0.484375q0 0.28125 -0.203125 0.46875q-0.265625 0.25 -1.328125 0.484375q-1.0625 0.21875 -2.03125 0.21875q-1.6875 0 -2.703125 -0.9375q-1.0 -0.953125 -1.0 -2.34375q0 -1.484375 1.078125 -2.40625q1.09375 -0.921875 2.515625 -0.921875q0.859375 0 1.578125 0.296875q0.71875 0.296875 1.0625 0.65625q0.484375 0.5 0.8125 1.25q0.21875 0.515625 0.21875 1.203125l0 0.59375zm-1.546875 -1.40625q-0.328125 -0.59375 -0.84375 -0.890625q-0.515625 -0.296875 -1.234375 -0.296875q-0.71875 0 -1.234375 0.296875q-0.515625 0.296875 -0.84375 0.890625l4.15625 0zm6.135742 -2.40625l0 0.875q0.890625 -0.640625 1.390625 -0.84375q0.515625 -0.21875 0.953125 -0.21875q0.6875 0 1.328125 0.5q0.4375 0.34375 0.4375 0.703125q0 0.296875 -0.203125 0.515625q-0.203125 0.203125 -0.5 0.203125q-0.265625 0 -0.5625 -0.25q-0.28125 -0.265625 -0.5 -0.265625q-0.296875 0 -0.890625 0.375q-0.578125 0.359375 -1.453125 1.09375l0 2.109375l2.0 0q0.5 0 0.71875 0.203125q0.21875 0.1875 0.21875 0.5q0 0.3125 -0.21875 0.515625q-0.21875 0.1875 -0.71875 0.1875l-4.234375 0q-0.5 0 -0.71875 -0.1875q-0.21875 -0.203125 -0.21875 -0.515625q0 -0.3125 0.21875 -0.5q0.21875 -0.203125 0.71875 -0.203125l0.84375 0l0 -3.40625l-0.515625 0q-0.5 0 -0.71875 -0.1875q-0.21875 -0.203125 -0.21875 -0.515625q0 -0.296875 0.21875 -0.484375q0.21875 -0.203125 0.71875 -0.203125l1.90625 0zm7.885742 3.359375l0 1.4375l1.421875 0q0.5 0 0.71875 0.203125q0.21875 0.1875 0.21875 0.5q0 0.3125 -0.21875 0.515625q-0.21875 0.1875 -0.71875 0.1875l-3.046875 0q-0.5 0 -0.71875 -0.1875q-0.21875 -0.203125 -0.21875 -0.515625q0 -0.3125 0.21875 -0.5q0.21875 -0.203125 0.71875 -0.203125l0.21875 0l0 -5.484375l-0.21875 0q-0.5 0 -0.71875 -0.1875q-0.21875 -0.203125 -0.21875 -0.515625q0 -0.3125 0.21875 -0.5q0.21875 -0.203125 0.71875 -0.203125l3.234375 0.015625q1.421875 0 2.25 0.78125q0.828125 0.765625 0.828125 1.875q0 0.625 -0.28125 1.171875q-0.203125 0.40625 -0.703125 0.8125q-0.5 0.390625 -1.015625 0.59375q-0.515625 0.203125 -1.359375 0.203125l-1.328125 0zm0 -1.40625l1.296875 0q0.921875 0 1.453125 -0.40625q0.53125 -0.421875 0.53125 -1.0q0 -0.484375 -0.4375 -0.859375q-0.421875 -0.375 -1.234375 -0.375l-1.609375 0l0 2.640625zm8.916992 -1.953125l0 0.875q0.890625 -0.640625 1.390625 -0.84375q0.515625 -0.21875 0.953125 -0.21875q0.6875 0 1.328125 0.5q0.4375 0.34375 0.4375 0.703125q0 0.296875 -0.203125 0.515625q-0.203125 0.203125 -0.5 0.203125q-0.265625 0 -0.5625 -0.25q-0.28125 -0.265625 -0.5 -0.265625q-0.296875 0 -0.890625 0.375q-0.578125 0.359375 -1.453125 1.09375l0 2.109375l2.0 0q0.5 0 0.71875 0.203125q0.21875 0.1875 0.21875 0.5q0 0.3125 -0.21875 0.515625q-0.21875 0.1875 -0.71875 0.1875l-4.234375 0q-0.5 0 -0.71875 -0.1875q-0.21875 -0.203125 -0.21875 -0.515625q0 -0.3125 0.21875 -0.5q0.21875 -0.203125 0.71875 -0.203125l0.84375 0l0 -3.40625l-0.515625 0q-0.5 0 -0.71875 -0.1875q-0.21875 -0.203125 -0.21875 -0.515625q0 -0.296875 0.21875 -0.484375q0.21875 -0.203125 0.71875 -0.203125l1.90625 0zm12.338867 3.21875q0 0.796875 -0.453125 1.5625q-0.4375 0.75 -1.328125 1.203125q-0.890625 0.4375 -1.84375 0.4375q-0.96875 0 -1.84375 -0.4375q-0.875 -0.4375 -1.328125 -1.1875q-0.453125 -0.765625 -0.453125 -1.59375q0 -0.84375 0.453125 -1.65625q0.46875 -0.8125 1.34375 -1.265625q0.875 -0.46875 1.828125 -0.46875q0.953125 0 1.828125 0.484375q0.890625 0.46875 1.34375 1.28125q0.453125 0.796875 0.453125 1.640625zm-1.40625 0q0 -0.671875 -0.484375 -1.234375q-0.65625 -0.765625 -1.734375 -0.765625q-0.953125 0 -1.59375 0.609375q-0.640625 0.59375 -0.640625 1.40625q0 0.65625 0.640625 1.234375q0.65625 0.5625 1.59375 0.5625q0.9375 0 1.578125 -0.5625q0.640625 -0.578125 0.640625 -1.25zm8.354492 -2.96875q0.25 -0.234375 0.515625 -0.234375q0.296875 0 0.484375 0.21875q0.203125 0.203125 0.203125 0.703125l0 0.90625q0 0.5 -0.203125 0.71875q-0.1875 0.203125 -0.5 0.203125q-0.28125 0 -0.484375 -0.15625q-0.140625 -0.125 -0.234375 -0.5q-0.078125 -0.390625 -0.390625 -0.5625q-0.546875 -0.328125 -1.40625 -0.328125q-1.0 0 -1.59375 0.578125q-0.59375 0.578125 -0.59375 1.46875q0 0.8125 0.5625 1.296875q0.578125 0.46875 1.90625 0.46875q0.875 0 1.4375 -0.171875q0.328125 -0.109375 0.609375 -0.375q0.296875 -0.265625 0.546875 -0.265625q0.28125 0 0.484375 0.21875q0.21875 0.203125 0.21875 0.5q0 0.453125 -0.640625 0.875q-0.9375 0.625 -2.765625 0.625q-1.625 0 -2.53125 -0.671875q-1.234375 -0.921875 -1.234375 -2.5q0 -1.5 1.0 -2.46875q1.0 -0.984375 2.59375 -0.984375q0.59375 0 1.09375 0.109375q0.5 0.109375 0.921875 0.328125z" fill-rule="nonzero"/><path fill="#cfe2f3" d="m335.5643 0l134.61417 0l0 118.519684l-134.61417 0z" fill-rule="evenodd"/><path stroke="#000000" stroke-width="1.0" stroke-linejoin="round" stroke-linecap="butt" d="m335.5643 0l134.61417 0l0 118.519684l-134.61417 0z" fill-rule="evenodd"/><path fill="#000000" d="m376.58023 18.17984l-3.53125 -13.359375l1.8125 0l2.03125 8.765625q0.328125 1.375 0.5625 2.71875q0.5 -2.140625 0.59375 -2.46875l2.546875 -9.015625l2.125 0l1.921875 6.765625q0.71875 2.515625 1.03125 4.71875q0.265625 -1.265625 0.671875 -2.890625l2.09375 -8.59375l1.78125 0l-3.671875 13.359375l-1.703125 0l-2.8125 -10.171875q-0.359375 -1.28125 -0.421875 -1.5625q-0.203125 0.90625 -0.390625 1.5625l-2.828125 10.171875l-1.8125 0zm14.468048 -4.84375q0 -2.6875 1.484375 -3.96875q1.25 -1.078125 3.046875 -1.078125q2.0 0 3.265625 1.3125q1.265625 1.296875 1.265625 3.609375q0 1.859375 -0.5625 2.9375q-0.5625 1.0625 -1.640625 1.65625q-1.0625 0.59375 -2.328125 0.59375q-2.03125 0 -3.28125 -1.296875q-1.25 -1.3125 -1.25 -3.765625zm1.6875 0q0 1.859375 0.796875 2.796875q0.8125 0.921875 2.046875 0.921875q1.21875 0 2.03125 -0.921875q0.8125 -0.9375 0.8125 -2.84375q0 -1.796875 -0.8125 -2.71875q-0.8125 -0.921875 -2.03125 -0.921875q-1.234375 0 -2.046875 0.921875q-0.796875 0.90625 -0.796875 2.765625zm9.281952 4.84375l0 -9.671875l1.46875 0l0 1.46875q0.5625 -1.03125 1.03125 -1.359375q0.484375 -0.328125 1.0625 -0.328125q0.828125 0 1.6875 0.53125l-0.5625 1.515625q-0.609375 -0.359375 -1.203125 -0.359375q-0.546875 0 -0.96875 0.328125q-0.421875 0.328125 -0.609375 0.890625q-0.28125 0.875 -0.28125 1.921875l0 5.0625l-1.625 0zm6.228302 0l0 -13.359375l1.640625 0l0 7.625l3.890625 -3.9375l2.109375 0l-3.6875 3.59375l4.0625 6.078125l-2.015625 0l-3.203125 -4.953125l-1.15625 1.125l0 3.828125l-1.640625 0zm15.953125 -3.109375l1.6875 0.203125q-0.40625 1.484375 -1.484375 2.3125q-1.078125 0.8125 -2.765625 0.8125q-2.125 0 -3.375 -1.296875q-1.234375 -1.3125 -1.234375 -3.671875q0 -2.453125 1.25 -3.796875q1.265625 -1.34375 3.265625 -1.34375q1.9375 0 3.15625 1.328125q1.234375 1.3125 1.234375 3.703125q0 0.15625 0 0.4375l-7.21875 0q0.09375 1.59375 0.90625 2.453125q0.8125 0.84375 2.015625 0.84375q0.90625 0 1.546875 -0.46875q0.640625 -0.484375 1.015625 -1.515625zm-5.390625 -2.65625l5.40625 0q-0.109375 -1.21875 -0.625 -1.828125q-0.78125 -0.953125 -2.03125 -0.953125q-1.125 0 -1.90625 0.765625q-0.765625 0.75 -0.84375 2.015625zm9.125732 5.765625l0 -9.671875l1.46875 0l0 1.46875q0.5625 -1.03125 1.03125 -1.359375q0.484375 -0.328125 1.0625 -0.328125q0.828125 0 1.6875 0.53125l-0.5625 1.515625q-0.609375 -0.359375 -1.203125 -0.359375q-0.546875 0 -0.96875 0.328125q-0.421875 0.328125 -0.609375 0.890625q-0.28125 0.875 -0.28125 1.921875l0 5.0625l-1.625 0z" fill-rule="nonzero"/><path fill="#000000" d="m378.1594 40.17984l0 -11.78125l-4.40625 0l0 -1.578125l10.578125 0l0 1.578125l-4.40625 0l0 11.78125l-1.765625 0zm7.7865906 0l0 -13.359375l1.640625 0l0 4.796875q1.140625 -1.328125 2.890625 -1.328125q1.078125 0 1.859375 0.421875q0.796875 0.421875 1.140625 1.171875q0.34375 0.75 0.34375 2.171875l0 6.125l-1.640625 0l0 -6.125q0 -1.234375 -0.53125 -1.796875q-0.53125 -0.5625 -1.515625 -0.5625q-0.71875 0 -1.359375 0.390625q-0.640625 0.375 -0.921875 1.015625q-0.265625 0.640625 -0.265625 1.78125l0 5.296875l-1.640625 0zm10.360107 0l0 -9.671875l1.46875 0l0 1.46875q0.5625 -1.03125 1.03125 -1.359375q0.484375 -0.328125 1.0625 -0.328125q0.828125 0 1.6875 0.53125l-0.5625 1.515625q-0.609375 -0.359375 -1.203125 -0.359375q-0.546875 0 -0.96875 0.328125q-0.421875 0.328125 -0.609375 0.890625q-0.28125 0.875 -0.28125 1.921875l0 5.0625l-1.625 0zm12.853302 -3.109375l1.6875 0.203125q-0.40625 1.484375 -1.484375 2.3125q-1.078125 0.8125 -2.765625 0.8125q-2.125 0 -3.375 -1.296875q-1.234375 -1.3125 -1.234375 -3.671875q0 -2.453125 1.25 -3.796875q1.265625 -1.34375 3.265625 -1.34375q1.9375 0 3.15625 1.328125q1.234375 1.3125 1.234375 3.703125q0 0.15625 0 0.4375l-7.21875 0q0.09375 1.59375 0.90625 2.453125q0.8125 0.84375 2.015625 0.84375q0.90625 0 1.546875 -0.46875q0.640625 -0.484375 1.015625 -1.515625zm-5.390625 -2.65625l5.40625 0q-0.109375 -1.21875 -0.625 -1.828125q-0.78125 -0.953125 -2.03125 -0.953125q-1.125 0 -1.90625 0.765625q-0.765625 0.75 -0.84375 2.015625zm15.453827 4.578125q-0.921875 0.765625 -1.765625 1.09375q-0.828125 0.3125 -1.796875 0.3125q-1.59375 0 -2.453125 -0.78125q-0.859375 -0.78125 -0.859375 -1.984375q0 -0.71875 0.328125 -1.296875q0.328125 -0.59375 0.84375 -0.9375q0.53125 -0.359375 1.1875 -0.546875q0.46875 -0.125 1.453125 -0.25q1.984375 -0.234375 2.921875 -0.5625q0.015625 -0.34375 0.015625 -0.421875q0 -1.0 -0.46875 -1.421875q-0.625 -0.546875 -1.875 -0.546875q-1.15625 0 -1.703125 0.40625q-0.546875 0.40625 -0.8125 1.421875l-1.609375 -0.21875q0.21875 -1.015625 0.71875 -1.640625q0.5 -0.640625 1.453125 -0.984375q0.953125 -0.34375 2.1875 -0.34375q1.25 0 2.015625 0.296875q0.78125 0.28125 1.140625 0.734375q0.375 0.4375 0.515625 1.109375q0.078125 0.421875 0.078125 1.515625l0 2.1875q0 2.28125 0.109375 2.890625q0.109375 0.59375 0.40625 1.15625l-1.703125 0q-0.265625 -0.515625 -0.328125 -1.1875zm-0.140625 -3.671875q-0.890625 0.375 -2.671875 0.625q-1.015625 0.140625 -1.4375 0.328125q-0.421875 0.1875 -0.65625 0.53125q-0.21875 0.34375 -0.21875 0.78125q0 0.65625 0.5 1.09375q0.5 0.4375 1.453125 0.4375q0.9375 0 1.671875 -0.40625q0.75 -0.421875 1.09375 -1.140625q0.265625 -0.5625 0.265625 -1.640625l0 -0.609375zm10.469482 4.859375l0 -1.21875q-0.90625 1.4375 -2.703125 1.4375q-1.15625 0 -2.125 -0.640625q-0.96875 -0.640625 -1.5 -1.78125q-0.53125 -1.140625 -0.53125 -2.625q0 -1.453125 0.484375 -2.625q0.484375 -1.1875 1.4375 -1.8125q0.96875 -0.625 2.171875 -0.625q0.875 0 1.546875 0.375q0.6875 0.359375 1.109375 0.953125l0 -4.796875l1.640625 0l0 13.359375l-1.53125 0zm-5.171875 -4.828125q0 1.859375 0.78125 2.78125q0.78125 0.921875 1.84375 0.921875q1.078125 0 1.828125 -0.875q0.75 -0.890625 0.75 -2.6875q0 -1.984375 -0.765625 -2.90625q-0.765625 -0.9375 -1.890625 -0.9375q-1.078125 0 -1.8125 0.890625q-0.734375 0.890625 -0.734375 2.8125z" fill-rule="nonzero"/><path fill="#000000" fill-opacity="0.0" d="m329.88715 65.42782l145.5433 0l0 40.755905l-145.5433 0z" fill-rule="evenodd"/><path fill="#000000" d="m351.25546 80.977196l0 3.984375q0 1.296875 -0.9375 2.203125q-0.9375 0.90625 -2.25 0.90625q-0.640625 0 -1.21875 -0.21875q-0.5625 -0.234375 -1.015625 -0.671875q-0.453125 -0.453125 -0.71875 -0.9375q-0.25 -0.484375 -0.25 -1.28125l0 -3.984375q-0.4375 0 -0.65625 -0.1875q-0.203125 -0.203125 -0.203125 -0.515625q0 -0.3125 0.203125 -0.5q0.21875 -0.1875 0.734375 -0.1875l1.828125 -0.015625q0.515625 0 0.71875 0.203125q0.21875 0.1875 0.21875 0.5q0 0.3125 -0.21875 0.515625q-0.203125 0.1875 -0.71875 0.1875l-0.5 0l0 4.09375q0 0.640625 0.515625 1.125q0.53125 0.46875 1.265625 0.46875q0.5 0 0.921875 -0.21875q0.4375 -0.234375 0.703125 -0.6875q0.171875 -0.28125 0.171875 -0.6875l0 -4.09375l-0.5 0q-0.515625 0 -0.734375 -0.1875q-0.203125 -0.203125 -0.203125 -0.515625q0 -0.3125 0.203125 -0.5q0.21875 -0.203125 0.734375 -0.203125l1.828125 0.015625q0.515625 0 0.71875 0.1875q0.21875 0.1875 0.21875 0.5q0 0.3125 -0.21875 0.515625q-0.203125 0.1875 -0.640625 0.1875zm3.0263672 0.6875l0 0.390625q0.34375 -0.328125 0.625 -0.453125q0.28125 -0.140625 0.640625 -0.140625q0.3125 0 0.609375 0.15625q0.296875 0.15625 0.578125 0.453125q0.375 -0.296875 0.734375 -0.4375q0.375 -0.15625 0.765625 -0.15625q0.78125 0 1.265625 0.421875q0.640625 0.546875 0.640625 1.421875l0 3.140625q0.4375 0 0.640625 0.203125q0.21875 0.203125 0.21875 0.5q0 0.3125 -0.21875 0.515625q-0.203125 0.1875 -0.703125 0.1875l-1.328125 0l0 -4.421875q0 -0.328125 -0.125 -0.4375q-0.109375 -0.125 -0.359375 -0.125q-0.21875 0 -0.421875 0.109375q-0.25 0.171875 -0.609375 0.65625l0 2.8125q0.4375 0 0.640625 0.203125q0.21875 0.203125 0.21875 0.5q0 0.3125 -0.21875 0.515625q-0.203125 0.1875 -0.71875 0.1875l-1.328125 0l0 -4.421875q0 -0.3125 -0.125 -0.4375q-0.109375 -0.125 -0.359375 -0.125q-0.25 0 -0.484375 0.15625q-0.234375 0.140625 -0.578125 0.609375l0 2.8125q0.4375 0 0.65625 0.203125q0.21875 0.203125 0.21875 0.5q0 0.3125 -0.21875 0.515625q-0.21875 0.1875 -0.71875 0.1875l-1.265625 0q-0.5 0 -0.71875 -0.1875q-0.21875 -0.203125 -0.21875 -0.515625q0 -0.3125 0.21875 -0.5q0.203125 -0.203125 0.65625 -0.203125l0 -3.40625q-0.453125 0 -0.65625 -0.1875q-0.21875 -0.203125 -0.21875 -0.515625q0 -0.296875 0.21875 -0.484375q0.21875 -0.203125 0.71875 -0.203125l1.328125 0zm12.088867 1.640625q-0.34375 -0.21875 -0.71875 -0.3125q-0.375 -0.109375 -0.78125 -0.109375q-0.828125 0 -1.296875 0.265625q-0.21875 0.109375 -0.21875 0.25q0 0.15625 0.296875 0.3125q0.21875 0.109375 0.96875 0.203125q1.390625 0.1875 1.9375 0.390625q0.71875 0.25 1.109375 0.75q0.390625 0.5 0.390625 1.046875q0 0.75 -0.65625 1.265625q-0.953125 0.71875 -2.46875 0.71875q-0.609375 0 -1.125 -0.109375q-0.515625 -0.09375 -0.953125 -0.296875q-0.09375 0.078125 -0.21875 0.140625q-0.109375 0.046875 -0.234375 0.046875q-0.328125 0 -0.53125 -0.21875q-0.1875 -0.21875 -0.1875 -0.71875l0 -0.484375q0 -0.5 0.1875 -0.71875q0.203125 -0.21875 0.515625 -0.21875q0.25 0 0.421875 0.140625q0.171875 0.140625 0.265625 0.484375q0.328125 0.28125 0.78125 0.421875q0.453125 0.140625 1.03125 0.140625q0.96875 0 1.5 -0.3125q0.25 -0.140625 0.25 -0.3125q0 -0.265625 -0.359375 -0.453125q-0.359375 -0.171875 -1.5 -0.296875q-1.6875 -0.171875 -2.25 -0.6875q-0.5625 -0.484375 -0.5625 -1.21875q0 -0.75 0.625 -1.25q0.859375 -0.6875 2.265625 -0.6875q0.484375 0 0.921875 0.09375q0.453125 0.09375 0.859375 0.28125q0.140625 -0.09375 0.25 -0.140625q0.109375 -0.046875 0.203125 -0.046875q0.296875 0 0.484375 0.21875q0.1875 0.203125 0.1875 0.71875l0 0.34375q0 0.453125 -0.109375 0.609375q-0.21875 0.3125 -0.59375 0.3125q-0.25 0 -0.453125 -0.15625q-0.1875 -0.15625 -0.234375 -0.40625zm7.557617 -2.328125l0 5.484375l0.953125 0q0.5 0 0.71875 0.203125q0.21875 0.1875 0.21875 0.5q0 0.3125 -0.21875 0.515625q-0.21875 0.1875 -0.71875 0.1875l-3.28125 0q-0.515625 0 -0.734375 -0.1875q-0.203125 -0.203125 -0.203125 -0.515625q0 -0.3125 0.203125 -0.5q0.21875 -0.203125 0.734375 -0.203125l0.9375 0l0 -5.484375l-1.515625 0l0 1.328125q0 0.515625 -0.203125 0.734375q-0.1875 0.203125 -0.5 0.203125q-0.3125 0 -0.515625 -0.203125q-0.1875 -0.21875 -0.1875 -0.734375l0 -2.734375l7.265625 0.015625l0 2.71875q0 0.515625 -0.203125 0.734375q-0.1875 0.203125 -0.515625 0.203125q-0.296875 0 -0.5 -0.203125q-0.1875 -0.21875 -0.1875 -0.734375l0 -1.328125l-1.546875 0zm6.276367 -1.96875l0 2.984375q0.4375 -0.265625 0.890625 -0.390625q0.453125 -0.125 0.90625 -0.125q0.71875 0 1.28125 0.25q0.578125 0.234375 0.953125 0.765625q0.375 0.53125 0.375 1.34375l0 2.625q0.53125 0 0.6875 0.109375q0.328125 0.203125 0.328125 0.59375q0 0.3125 -0.21875 0.515625q-0.203125 0.1875 -0.703125 0.1875l-1.609375 0q-0.5 0 -0.71875 -0.1875q-0.203125 -0.203125 -0.203125 -0.515625q0 -0.390625 0.328125 -0.59375q0.171875 -0.109375 0.703125 -0.109375l0 -2.53125q0 -0.546875 -0.25 -0.765625q-0.328125 -0.28125 -0.953125 -0.28125q-0.46875 0 -0.828125 0.1875q-0.359375 0.171875 -0.96875 0.765625l0 2.625q0.546875 0 0.703125 0.109375q0.328125 0.203125 0.328125 0.59375q0 0.3125 -0.21875 0.515625q-0.203125 0.1875 -0.71875 0.1875l-1.578125 0q-0.515625 0 -0.734375 -0.1875q-0.203125 -0.203125 -0.203125 -0.515625q0 -0.390625 0.328125 -0.59375q0.171875 -0.109375 0.703125 -0.109375l0 -6.0625l-0.25 0q-0.5 0 -0.71875 -0.1875q-0.21875 -0.203125 -0.21875 -0.515625q0 -0.3125 0.21875 -0.5q0.21875 -0.1875 0.71875 -0.1875l1.640625 0zm9.557617 2.65625l0 0.875q0.890625 -0.640625 1.390625 -0.84375q0.515625 -0.21875 0.953125 -0.21875q0.6875 0 1.328125 0.5q0.4375 0.34375 0.4375 0.703125q0 0.296875 -0.203125 0.515625q-0.203125 0.203125 -0.5 0.203125q-0.265625 0 -0.5625 -0.25q-0.28125 -0.265625 -0.5 -0.265625q-0.296875 0 -0.890625 0.375q-0.578125 0.359375 -1.453125 1.09375l0 2.109375l2.0 0q0.5 0 0.71875 0.203125q0.21875 0.1875 0.21875 0.5q0 0.3125 -0.21875 0.515625q-0.21875 0.1875 -0.71875 0.1875l-4.234375 0q-0.5 0 -0.71875 -0.1875q-0.21875 -0.203125 -0.21875 -0.515625q0 -0.3125 0.21875 -0.5q0.21875 -0.203125 0.71875 -0.203125l0.84375 0l0 -3.40625l-0.515625 0q-0.5 0 -0.71875 -0.1875q-0.21875 -0.203125 -0.21875 -0.515625q0 -0.296875 0.21875 -0.484375q0.21875 -0.203125 0.71875 -0.203125l1.90625 0zm12.213867 3.8125l-5.75 0q0.21875 0.546875 0.765625 0.890625q0.5625 0.328125 1.515625 0.328125q0.78125 0 2.078125 -0.34375q0.53125 -0.125 0.734375 -0.125q0.28125 0 0.46875 0.203125q0.1875 0.1875 0.1875 0.484375q0 0.28125 -0.203125 0.46875q-0.265625 0.25 -1.328125 0.484375q-1.0625 0.21875 -2.03125 0.21875q-1.6875 0 -2.703125 -0.9375q-1.0 -0.953125 -1.0 -2.34375q0 -1.484375 1.078125 -2.40625q1.09375 -0.921875 2.515625 -0.921875q0.859375 0 1.578125 0.296875q0.71875 0.296875 1.0625 0.65625q0.484375 0.5 0.8125 1.25q0.21875 0.515625 0.21875 1.203125l0 0.59375zm-1.546875 -1.40625q-0.328125 -0.59375 -0.84375 -0.890625q-0.515625 -0.296875 -1.234375 -0.296875q-0.71875 0 -1.234375 0.296875q-0.515625 0.296875 -0.84375 0.890625l4.15625 0zm7.698242 3.796875l0 -0.328125q-0.53125 0.28125 -1.171875 0.421875q-0.625 0.140625 -1.15625 0.140625q-1.125 0 -1.828125 -0.59375q-0.703125 -0.609375 -0.703125 -1.328125q0 -0.890625 0.890625 -1.640625q0.90625 -0.75 2.5 -0.75q0.625 0 1.46875 0.140625l0 -0.34375q0 -0.3125 -0.28125 -0.5q-0.265625 -0.203125 -1.03125 -0.203125q-0.609375 0 -1.609375 0.234375q-0.359375 0.09375 -0.578125 0.09375q-0.265625 0 -0.46875 -0.203125q-0.1875 -0.203125 -0.1875 -0.515625q0 -0.171875 0.0625 -0.296875q0.0625 -0.140625 0.1875 -0.21875q0.125 -0.078125 0.515625 -0.1875q0.515625 -0.140625 1.046875 -0.21875q0.546875 -0.09375 0.984375 -0.09375q1.3125 0 2.03125 0.5625q0.71875 0.5625 0.71875 1.546875l0 2.875l0.25 0q0.5 0 0.71875 0.203125q0.21875 0.1875 0.21875 0.5q0 0.3125 -0.21875 0.515625q-0.21875 0.1875 -0.71875 0.1875l-1.640625 0zm0 -2.515625q-0.84375 -0.15625 -1.5625 -0.15625q-0.84375 0 -1.46875 0.421875q-0.375 0.265625 -0.375 0.53125q0 0.203125 0.1875 0.328125q0.328125 0.21875 0.921875 0.21875q0.515625 0 1.15625 -0.1875q0.640625 -0.203125 1.140625 -0.546875l0 -0.609375zm10.354492 -6.34375l0 7.453125l0.234375 0q0.5 0 0.71875 0.203125q0.21875 0.1875 0.21875 0.5q0 0.3125 -0.21875 0.515625q-0.21875 0.1875 -0.71875 0.1875l-1.640625 0l0 -0.34375q-0.484375 0.28125 -1.015625 0.421875q-0.515625 0.140625 -1.0625 0.140625q-1.578125 0 -2.546875 -0.90625q-0.96875 -0.90625 -0.96875 -2.265625q0 -1.421875 1.015625 -2.421875q1.015625 -1.015625 2.46875 -1.015625q0.546875 0 1.0625 0.171875q0.53125 0.15625 1.046875 0.5l0 -1.75l-0.234375 0q-0.515625 0 -0.734375 -0.1875q-0.203125 -0.203125 -0.203125 -0.5q0 -0.328125 0.203125 -0.515625q0.21875 -0.1875 0.734375 -0.1875l1.640625 0zm-1.40625 5.9375q0 -0.859375 -0.609375 -1.453125q-0.609375 -0.609375 -1.484375 -0.609375q-0.875 0 -1.484375 0.609375q-0.609375 0.59375 -0.609375 1.4375q0 0.765625 0.546875 1.265625q0.546875 0.5 1.546875 0.5q0.984375 0 1.53125 -0.5q0.5625 -0.5 0.5625 -1.25zm7.291992 -0.5625l0 2.078125l0.953125 0q0.5 0 0.703125 0.203125q0.21875 0.1875 0.21875 0.5q0 0.3125 -0.21875 0.515625q-0.203125 0.1875 -0.703125 0.1875l-3.296875 0q-0.5 0 -0.71875 -0.1875q-0.203125 -0.203125 -0.203125 -0.515625q0 -0.3125 0.203125 -0.5q0.21875 -0.203125 0.71875 -0.203125l0.9375 0l0 -2.078125l-2.3125 -3.40625q-0.46875 0 -0.6875 -0.1875q-0.203125 -0.203125 -0.203125 -0.515625q0 -0.3125 0.203125 -0.5q0.21875 -0.203125 0.734375 -0.203125l1.265625 0.015625q0.515625 0 0.71875 0.1875q0.21875 0.1875 0.21875 0.5q0 0.484375 -0.546875 0.703125l1.328125 1.96875l1.296875 -1.96875q-0.3125 -0.109375 -0.453125 -0.28125q-0.125 -0.1875 -0.125 -0.421875q0 -0.3125 0.21875 -0.5q0.21875 -0.1875 0.71875 -0.203125l1.328125 0.015625q0.5 0 0.71875 0.1875q0.21875 0.1875 0.21875 0.5q0 0.3125 -0.21875 0.515625q-0.21875 0.1875 -0.71875 0.1875l-2.296875 3.40625zm8.198242 -5.375l0 1.46875l-1.671875 0l0 -1.46875l1.671875 0zm0.1875 2.65625l0 4.796875l1.6875 0q0.5 0 0.71875 0.203125q0.21875 0.1875 0.21875 0.5q0 0.3125 -0.21875 0.515625q-0.21875 0.1875 -0.71875 0.1875l-4.765625 0q-0.5 0 -0.71875 -0.1875q-0.21875 -0.203125 -0.21875 -0.515625q0 -0.3125 0.21875 -0.5q0.21875 -0.203125 0.71875 -0.203125l1.6875 0l0 -3.40625l-1.140625 0q-0.5 0 -0.71875 -0.1875q-0.21875 -0.203125 -0.21875 -0.515625q0 -0.296875 0.21875 -0.484375q0.21875 -0.203125 0.71875 -0.203125l2.53125 0zm11.229492 3.8125l-5.75 0q0.21875 0.546875 0.765625 0.890625q0.5625 0.328125 1.515625 0.328125q0.78125 0 2.078125 -0.34375q0.53125 -0.125 0.734375 -0.125q0.28125 0 0.46875 0.203125q0.1875 0.1875 0.1875 0.484375q0 0.28125 -0.203125 0.46875q-0.265625 0.25 -1.328125 0.484375q-1.0625 0.21875 -2.03125 0.21875q-1.6875 0 -2.703125 -0.9375q-1.0 -0.953125 -1.0 -2.34375q0 -1.484375 1.078125 -2.40625q1.09375 -0.921875 2.515625 -0.921875q0.859375 0 1.578125 0.296875q0.71875 0.296875 1.0625 0.65625q0.484375 0.5 0.8125 1.25q0.21875 0.515625 0.21875 1.203125l0 0.59375zm-1.546875 -1.40625q-0.328125 -0.59375 -0.84375 -0.890625q-0.515625 -0.296875 -1.234375 -0.296875q-0.71875 0 -1.234375 0.296875q-0.515625 0.296875 -0.84375 0.890625l4.15625 0zm7.135742 -5.0625l0 7.453125l1.671875 0q0.515625 0 0.71875 0.203125q0.21875 0.1875 0.21875 0.5q0 0.3125 -0.21875 0.515625q-0.203125 0.1875 -0.71875 0.1875l-4.765625 0q-0.5 0 -0.71875 -0.1875q-0.21875 -0.203125 -0.21875 -0.515625q0 -0.3125 0.21875 -0.5q0.21875 -0.203125 0.71875 -0.203125l1.6875 0l0 -6.0625l-1.125 0q-0.5 0 -0.71875 -0.1875q-0.21875 -0.203125 -0.21875 -0.515625q0 -0.3125 0.203125 -0.5q0.21875 -0.1875 0.734375 -0.1875l2.53125 0zm10.916992 0l0 7.453125l0.234375 0q0.5 0 0.71875 0.203125q0.21875 0.1875 0.21875 0.5q0 0.3125 -0.21875 0.515625q-0.21875 0.1875 -0.71875 0.1875l-1.640625 0l0 -0.34375q-0.484375 0.28125 -1.015625 0.421875q-0.515625 0.140625 -1.0625 0.140625q-1.578125 0 -2.546875 -0.90625q-0.96875 -0.90625 -0.96875 -2.265625q0 -1.421875 1.015625 -2.421875q1.015625 -1.015625 2.46875 -1.015625q0.546875 0 1.0625 0.171875q0.53125 0.15625 1.046875 0.5l0 -1.75l-0.234375 0q-0.515625 0 -0.734375 -0.1875q-0.203125 -0.203125 -0.203125 -0.5q0 -0.328125 0.203125 -0.515625q0.21875 -0.1875 0.734375 -0.1875l1.640625 0zm-1.40625 5.9375q0 -0.859375 -0.609375 -1.453125q-0.609375 -0.609375 -1.484375 -0.609375q-0.875 0 -1.484375 0.609375q-0.609375 0.59375 -0.609375 1.4375q0 0.765625 0.546875 1.265625q0.546875 0.5 1.546875 0.5q0.984375 0 1.53125 -0.5q0.5625 -0.5 0.5625 -1.25z" fill-rule="nonzero"/><path fill="#000000" fill-opacity="0.0" d="m402.65878 106.18372l0 51.1811l-43.62204 0" fill-rule="evenodd"/><path stroke="#000000" stroke-width="1.0" stroke-linejoin="round" stroke-linecap="butt" d="m402.65878 106.18372l0 51.1811l-37.62204 0" fill-rule="evenodd"/><path fill="#000000" stroke="#000000" stroke-width="1.0" stroke-linecap="butt" d="m365.03674 155.7131l-4.538086 1.6517181l4.538086 1.6517334z" fill-rule="evenodd"/><path fill="#cfe2f3" d="m490.063 0l134.6142 0l0 118.519684l-134.6142 0z" fill-rule="evenodd"/><path stroke="#000000" stroke-width="1.0" stroke-linejoin="round" stroke-linecap="butt" d="m490.063 0l134.6142 0l0 118.519684l-134.6142 0z" fill-rule="evenodd"/><path fill="#000000" d="m531.0789 18.17984l-3.53125 -13.359375l1.8125 0l2.03125 8.765625q0.328125 1.375 0.5625 2.71875q0.5 -2.140625 0.59375 -2.46875l2.546875 -9.015625l2.125 0l1.921875 6.765625q0.71875 2.515625 1.03125 4.71875q0.265625 -1.265625 0.671875 -2.890625l2.09375 -8.59375l1.78125 0l-3.671875 13.359375l-1.703125 0l-2.8125 -10.171875q-0.359375 -1.28125 -0.421875 -1.5625q-0.203125 0.90625 -0.390625 1.5625l-2.828125 10.171875l-1.8125 0zm14.468018 -4.84375q0 -2.6875 1.484375 -3.96875q1.25 -1.078125 3.046875 -1.078125q2.0 0 3.265625 1.3125q1.265625 1.296875 1.265625 3.609375q0 1.859375 -0.5625 2.9375q-0.5625 1.0625 -1.640625 1.65625q-1.0625 0.59375 -2.328125 0.59375q-2.03125 0 -3.28125 -1.296875q-1.25 -1.3125 -1.25 -3.765625zm1.6875 0q0 1.859375 0.796875 2.796875q0.8125 0.921875 2.046875 0.921875q1.21875 0 2.03125 -0.921875q0.8125 -0.9375 0.8125 -2.84375q0 -1.796875 -0.8125 -2.71875q-0.8125 -0.921875 -2.03125 -0.921875q-1.234375 0 -2.046875 0.921875q-0.796875 0.90625 -0.796875 2.765625zm9.281982 4.84375l0 -9.671875l1.46875 0l0 1.46875q0.5625 -1.03125 1.03125 -1.359375q0.484375 -0.328125 1.0625 -0.328125q0.828125 0 1.6875 0.53125l-0.5625 1.515625q-0.609375 -0.359375 -1.203125 -0.359375q-0.546875 0 -0.96875 0.328125q-0.421875 0.328125 -0.609375 0.890625q-0.28125 0.875 -0.28125 1.921875l0 5.0625l-1.625 0zm6.2283325 0l0 -13.359375l1.640625 0l0 7.625l3.890625 -3.9375l2.109375 0l-3.6875 3.59375l4.0625 6.078125l-2.015625 0l-3.203125 -4.953125l-1.15625 1.125l0 3.828125l-1.640625 0zm15.953125 -3.109375l1.6875 0.203125q-0.40625 1.484375 -1.484375 2.3125q-1.078125 0.8125 -2.765625 0.8125q-2.125 0 -3.375 -1.296875q-1.234375 -1.3125 -1.234375 -3.671875q0 -2.453125 1.25 -3.796875q1.265625 -1.34375 3.265625 -1.34375q1.9375 0 3.15625 1.328125q1.234375 1.3125 1.234375 3.703125q0 0.15625 0 0.4375l-7.21875 0q0.09375 1.59375 0.90625 2.453125q0.8125 0.84375 2.015625 0.84375q0.90625 0 1.546875 -0.46875q0.640625 -0.484375 1.015625 -1.515625zm-5.390625 -2.65625l5.40625 0q-0.109375 -1.21875 -0.625 -1.828125q-0.78125 -0.953125 -2.03125 -0.953125q-1.125 0 -1.90625 0.765625q-0.765625 0.75 -0.84375 2.015625zm9.125671 5.765625l0 -9.671875l1.46875 0l0 1.46875q0.5625 -1.03125 1.03125 -1.359375q0.484375 -0.328125 1.0625 -0.328125q0.828125 0 1.6875 0.53125l-0.5625 1.515625q-0.609375 -0.359375 -1.203125 -0.359375q-0.546875 0 -0.96875 0.328125q-0.421875 0.328125 -0.609375 0.890625q-0.28125 0.875 -0.28125 1.921875l0 5.0625l-1.625 0z" fill-rule="nonzero"/><path fill="#000000" d="m532.6581 40.17984l0 -11.78125l-4.40625 0l0 -1.578125l10.578125 0l0 1.578125l-4.40625 0l0 11.78125l-1.765625 0zm7.786621 0l0 -13.359375l1.640625 0l0 4.796875q1.140625 -1.328125 2.890625 -1.328125q1.078125 0 1.859375 0.421875q0.796875 0.421875 1.140625 1.171875q0.34375 0.75 0.34375 2.171875l0 6.125l-1.640625 0l0 -6.125q0 -1.234375 -0.53125 -1.796875q-0.53125 -0.5625 -1.515625 -0.5625q-0.71875 0 -1.359375 0.390625q-0.640625 0.375 -0.921875 1.015625q-0.265625 0.640625 -0.265625 1.78125l0 5.296875l-1.640625 0zm10.360046 0l0 -9.671875l1.46875 0l0 1.46875q0.5625 -1.03125 1.03125 -1.359375q0.484375 -0.328125 1.0625 -0.328125q0.828125 0 1.6875 0.53125l-0.5625 1.515625q-0.609375 -0.359375 -1.203125 -0.359375q-0.546875 0 -0.96875 0.328125q-0.421875 0.328125 -0.609375 0.890625q-0.28125 0.875 -0.28125 1.921875l0 5.0625l-1.625 0zm12.8533325 -3.109375l1.6875 0.203125q-0.40625 1.484375 -1.484375 2.3125q-1.078125 0.8125 -2.765625 0.8125q-2.125 0 -3.375 -1.296875q-1.234375 -1.3125 -1.234375 -3.671875q0 -2.453125 1.25 -3.796875q1.265625 -1.34375 3.265625 -1.34375q1.9375 0 3.15625 1.328125q1.234375 1.3125 1.234375 3.703125q0 0.15625 0 0.4375l-7.21875 0q0.09375 1.59375 0.90625 2.453125q0.8125 0.84375 2.015625 0.84375q0.90625 0 1.546875 -0.46875q0.640625 -0.484375 1.015625 -1.515625zm-5.390625 -2.65625l5.40625 0q-0.109375 -1.21875 -0.625 -1.828125q-0.78125 -0.953125 -2.03125 -0.953125q-1.125 0 -1.90625 0.765625q-0.765625 0.75 -0.84375 2.015625zm15.453857 4.578125q-0.921875 0.765625 -1.765625 1.09375q-0.828125 0.3125 -1.796875 0.3125q-1.59375 0 -2.453125 -0.78125q-0.859375 -0.78125 -0.859375 -1.984375q0 -0.71875 0.328125 -1.296875q0.328125 -0.59375 0.84375 -0.9375q0.53125 -0.359375 1.1875 -0.546875q0.46875 -0.125 1.453125 -0.25q1.984375 -0.234375 2.921875 -0.5625q0.015625 -0.34375 0.015625 -0.421875q0 -1.0 -0.46875 -1.421875q-0.625 -0.546875 -1.875 -0.546875q-1.15625 0 -1.703125 0.40625q-0.546875 0.40625 -0.8125 1.421875l-1.609375 -0.21875q0.21875 -1.015625 0.71875 -1.640625q0.5 -0.640625 1.453125 -0.984375q0.953125 -0.34375 2.1875 -0.34375q1.25 0 2.015625 0.296875q0.78125 0.28125 1.140625 0.734375q0.375 0.4375 0.515625 1.109375q0.078125 0.421875 0.078125 1.515625l0 2.1875q0 2.28125 0.109375 2.890625q0.109375 0.59375 0.40625 1.15625l-1.703125 0q-0.265625 -0.515625 -0.328125 -1.1875zm-0.140625 -3.671875q-0.890625 0.375 -2.671875 0.625q-1.015625 0.140625 -1.4375 0.328125q-0.421875 0.1875 -0.65625 0.53125q-0.21875 0.34375 -0.21875 0.78125q0 0.65625 0.5 1.09375q0.5 0.4375 1.453125 0.4375q0.9375 0 1.671875 -0.40625q0.75 -0.421875 1.09375 -1.140625q0.265625 -0.5625 0.265625 -1.640625l0 -0.609375zm10.469421 4.859375l0 -1.21875q-0.90625 1.4375 -2.703125 1.4375q-1.15625 0 -2.125 -0.640625q-0.96875 -0.640625 -1.5 -1.78125q-0.53125 -1.140625 -0.53125 -2.625q0 -1.453125 0.484375 -2.625q0.484375 -1.1875 1.4375 -1.8125q0.96875 -0.625 2.171875 -0.625q0.875 0 1.546875 0.375q0.6875 0.359375 1.109375 0.953125l0 -4.796875l1.640625 0l0 13.359375l-1.53125 0zm-5.171875 -4.828125q0 1.859375 0.78125 2.78125q0.78125 0.921875 1.84375 0.921875q1.078125 0 1.828125 -0.875q0.75 -0.890625 0.75 -2.6875q0 -1.984375 -0.765625 -2.90625q-0.765625 -0.9375 -1.890625 -0.9375q-1.078125 0 -1.8125 0.890625q-0.734375 0.890625 -0.734375 2.8125z" fill-rule="nonzero"/><path fill="#cfe2f3" d="m644.5617 0l134.61414 0l0 118.519684l-134.61414 0z" fill-rule="evenodd"/><path stroke="#000000" stroke-width="1.0" stroke-linejoin="round" stroke-linecap="butt" d="m644.5617 0l134.61414 0l0 118.519684l-134.61414 0z" fill-rule="evenodd"/><path fill="#000000" d="m685.5776 18.17984l-3.53125 -13.359375l1.8125 0l2.03125 8.765625q0.328125 1.375 0.5625 2.71875q0.5 -2.140625 0.59375 -2.46875l2.546875 -9.015625l2.125 0l1.921875 6.765625q0.71875 2.515625 1.03125 4.71875q0.265625 -1.265625 0.671875 -2.890625l2.09375 -8.59375l1.78125 0l-3.671875 13.359375l-1.703125 0l-2.8125 -10.171875q-0.359375 -1.28125 -0.421875 -1.5625q-0.203125 0.90625 -0.390625 1.5625l-2.828125 10.171875l-1.8125 0zm14.468079 -4.84375q0 -2.6875 1.484375 -3.96875q1.25 -1.078125 3.046875 -1.078125q2.0 0 3.265625 1.3125q1.265625 1.296875 1.265625 3.609375q0 1.859375 -0.5625 2.9375q-0.5625 1.0625 -1.640625 1.65625q-1.0625 0.59375 -2.328125 0.59375q-2.03125 0 -3.28125 -1.296875q-1.25 -1.3125 -1.25 -3.765625zm1.6875 0q0 1.859375 0.796875 2.796875q0.8125 0.921875 2.046875 0.921875q1.21875 0 2.03125 -0.921875q0.8125 -0.9375 0.8125 -2.84375q0 -1.796875 -0.8125 -2.71875q-0.8125 -0.921875 -2.03125 -0.921875q-1.234375 0 -2.046875 0.921875q-0.796875 0.90625 -0.796875 2.765625zm9.281982 4.84375l0 -9.671875l1.46875 0l0 1.46875q0.5625 -1.03125 1.03125 -1.359375q0.484375 -0.328125 1.0625 -0.328125q0.828125 0 1.6875 0.53125l-0.5625 1.515625q-0.609375 -0.359375 -1.203125 -0.359375q-0.546875 0 -0.96875 0.328125q-0.421875 0.328125 -0.609375 0.890625q-0.28125 0.875 -0.28125 1.921875l0 5.0625l-1.625 0zm6.2282715 0l0 -13.359375l1.640625 0l0 7.625l3.890625 -3.9375l2.109375 0l-3.6875 3.59375l4.0625 6.078125l-2.015625 0l-3.203125 -4.953125l-1.15625 1.125l0 3.828125l-1.640625 0zm15.953125 -3.109375l1.6875 0.203125q-0.40625 1.484375 -1.484375 2.3125q-1.078125 0.8125 -2.765625 0.8125q-2.125 0 -3.375 -1.296875q-1.234375 -1.3125 -1.234375 -3.671875q0 -2.453125 1.25 -3.796875q1.265625 -1.34375 3.265625 -1.34375q1.9375 0 3.15625 1.328125q1.234375 1.3125 1.234375 3.703125q0 0.15625 0 0.4375l-7.21875 0q0.09375 1.59375 0.90625 2.453125q0.8125 0.84375 2.015625 0.84375q0.90625 0 1.546875 -0.46875q0.640625 -0.484375 1.015625 -1.515625zm-5.390625 -2.65625l5.40625 0q-0.109375 -1.21875 -0.625 -1.828125q-0.78125 -0.953125 -2.03125 -0.953125q-1.125 0 -1.90625 0.765625q-0.765625 0.75 -0.84375 2.015625zm9.125732 5.765625l0 -9.671875l1.46875 0l0 1.46875q0.5625 -1.03125 1.03125 -1.359375q0.484375 -0.328125 1.0625 -0.328125q0.828125 0 1.6875 0.53125l-0.5625 1.515625q-0.609375 -0.359375 -1.203125 -0.359375q-0.546875 0 -0.96875 0.328125q-0.421875 0.328125 -0.609375 0.890625q-0.28125 0.875 -0.28125 1.921875l0 5.0625l-1.625 0z" fill-rule="nonzero"/><path fill="#000000" d="m687.15674 40.17984l0 -11.78125l-4.40625 0l0 -1.578125l10.578125 0l0 1.578125l-4.40625 0l0 11.78125l-1.765625 0zm7.786621 0l0 -13.359375l1.640625 0l0 4.796875q1.140625 -1.328125 2.890625 -1.328125q1.078125 0 1.859375 0.421875q0.796875 0.421875 1.140625 1.171875q0.34375 0.75 0.34375 2.171875l0 6.125l-1.640625 0l0 -6.125q0 -1.234375 -0.53125 -1.796875q-0.53125 -0.5625 -1.515625 -0.5625q-0.71875 0 -1.359375 0.390625q-0.640625 0.375 -0.921875 1.015625q-0.265625 0.640625 -0.265625 1.78125l0 5.296875l-1.640625 0zm10.360107 0l0 -9.671875l1.46875 0l0 1.46875q0.5625 -1.03125 1.03125 -1.359375q0.484375 -0.328125 1.0625 -0.328125q0.828125 0 1.6875 0.53125l-0.5625 1.515625q-0.609375 -0.359375 -1.203125 -0.359375q-0.546875 0 -0.96875 0.328125q-0.421875 0.328125 -0.609375 0.890625q-0.28125 0.875 -0.28125 1.921875l0 5.0625l-1.625 0zm12.8532715 -3.109375l1.6875 0.203125q-0.40625 1.484375 -1.484375 2.3125q-1.078125 0.8125 -2.765625 0.8125q-2.125 0 -3.375 -1.296875q-1.234375 -1.3125 -1.234375 -3.671875q0 -2.453125 1.25 -3.796875q1.265625 -1.34375 3.265625 -1.34375q1.9375 0 3.15625 1.328125q1.234375 1.3125 1.234375 3.703125q0 0.15625 0 0.4375l-7.21875 0q0.09375 1.59375 0.90625 2.453125q0.8125 0.84375 2.015625 0.84375q0.90625 0 1.546875 -0.46875q0.640625 -0.484375 1.015625 -1.515625zm-5.390625 -2.65625l5.40625 0q-0.109375 -1.21875 -0.625 -1.828125q-0.78125 -0.953125 -2.03125 -0.953125q-1.125 0 -1.90625 0.765625q-0.765625 0.75 -0.84375 2.015625zm15.453857 4.578125q-0.921875 0.765625 -1.765625 1.09375q-0.828125 0.3125 -1.796875 0.3125q-1.59375 0 -2.453125 -0.78125q-0.859375 -0.78125 -0.859375 -1.984375q0 -0.71875 0.328125 -1.296875q0.328125 -0.59375 0.84375 -0.9375q0.53125 -0.359375 1.1875 -0.546875q0.46875 -0.125 1.453125 -0.25q1.984375 -0.234375 2.921875 -0.5625q0.015625 -0.34375 0.015625 -0.421875q0 -1.0 -0.46875 -1.421875q-0.625 -0.546875 -1.875 -0.546875q-1.15625 0 -1.703125 0.40625q-0.546875 0.40625 -0.8125 1.421875l-1.609375 -0.21875q0.21875 -1.015625 0.71875 -1.640625q0.5 -0.640625 1.453125 -0.984375q0.953125 -0.34375 2.1875 -0.34375q1.25 0 2.015625 0.296875q0.78125 0.28125 1.140625 0.734375q0.375 0.4375 0.515625 1.109375q0.078125 0.421875 0.078125 1.515625l0 2.1875q0 2.28125 0.109375 2.890625q0.109375 0.59375 0.40625 1.15625l-1.703125 0q-0.265625 -0.515625 -0.328125 -1.1875zm-0.140625 -3.671875q-0.890625 0.375 -2.671875 0.625q-1.015625 0.140625 -1.4375 0.328125q-0.421875 0.1875 -0.65625 0.53125q-0.21875 0.34375 -0.21875 0.78125q0 0.65625 0.5 1.09375q0.5 0.4375 1.453125 0.4375q0.9375 0 1.671875 -0.40625q0.75 -0.421875 1.09375 -1.140625q0.265625 -0.5625 0.265625 -1.640625l0 -0.609375zm10.469482 4.859375l0 -1.21875q-0.90625 1.4375 -2.703125 1.4375q-1.15625 0 -2.125 -0.640625q-0.96875 -0.640625 -1.5 -1.78125q-0.53125 -1.140625 -0.53125 -2.625q0 -1.453125 0.484375 -2.625q0.484375 -1.1875 1.4375 -1.8125q0.96875 -0.625 2.171875 -0.625q0.875 0 1.546875 0.375q0.6875 0.359375 1.109375 0.953125l0 -4.796875l1.640625 0l0 13.359375l-1.53125 0zm-5.171875 -4.828125q0 1.859375 0.78125 2.78125q0.78125 0.921875 1.84375 0.921875q1.078125 0 1.828125 -0.875q0.75 -0.890625 0.75 -2.6875q0 -1.984375 -0.765625 -2.90625q-0.765625 -0.9375 -1.890625 -0.9375q-1.078125 0 -1.8125 0.890625q-0.734375 0.890625 -0.734375 2.8125z" fill-rule="nonzero"/><path fill="#000000" fill-opacity="0.0" d="m0 70.173225l122.89764 0l0 36.0l-122.89764 0z" fill-rule="evenodd"/><path fill="#000000" d="m27.06551 83.73385l1.765625 0l0 7.71875q0 2.015625 -0.453125 3.203125q-0.453125 1.1875 -1.640625 1.9375q-1.1875 0.734375 -3.125 0.734375q-1.875 0 -3.078125 -0.640625q-1.1875 -0.65625 -1.703125 -1.875q-0.5 -1.234375 -0.5 -3.359375l0 -7.71875l1.765625 0l0 7.71875q0 1.734375 0.3125 2.5625q0.328125 0.8125 1.109375 1.265625q0.796875 0.453125 1.9375 0.453125q1.953125 0 2.78125 -0.890625q0.828125 -0.890625 0.828125 -3.390625l0 -7.71875zm3.8479462 10.46875l1.625 -0.25q0.125 0.96875 0.75 1.5q0.625 0.515625 1.75 0.515625q1.125 0 1.671875 -0.453125q0.546875 -0.46875 0.546875 -1.09375q0 -0.546875 -0.484375 -0.875q-0.328125 -0.21875 -1.671875 -0.546875q-1.8125 -0.46875 -2.515625 -0.796875q-0.6875 -0.328125 -1.046875 -0.90625q-0.359375 -0.59375 -0.359375 -1.3125q0 -0.640625 0.296875 -1.1875q0.296875 -0.5625 0.8125 -0.921875q0.375 -0.28125 1.03125 -0.46875q0.671875 -0.203125 1.421875 -0.203125q1.140625 0 2.0 0.328125q0.859375 0.328125 1.265625 0.890625q0.421875 0.5625 0.578125 1.5l-1.609375 0.21875q-0.109375 -0.75 -0.640625 -1.171875q-0.515625 -0.421875 -1.46875 -0.421875q-1.140625 0 -1.625 0.375q-0.46875 0.375 -0.46875 0.875q0 0.3125 0.1875 0.578125q0.203125 0.265625 0.640625 0.4375q0.234375 0.09375 1.4375 0.421875q1.75 0.453125 2.4375 0.75q0.6875 0.296875 1.078125 0.859375q0.390625 0.5625 0.390625 1.40625q0 0.828125 -0.484375 1.546875q-0.46875 0.71875 -1.375 1.125q-0.90625 0.390625 -2.046875 0.390625q-1.875 0 -2.875 -0.78125q-0.984375 -0.78125 -1.25 -2.328125zm16.609375 -0.21875l1.6875 0.203125q-0.40625 1.484375 -1.484375 2.3125q-1.078125 0.8125 -2.765625 0.8125q-2.125 0 -3.375 -1.296875q-1.234375 -1.3125 -1.234375 -3.671875q0 -2.453125 1.25 -3.796875q1.265625 -1.34375 3.265625 -1.34375q1.9375 0 3.15625 1.328125q1.234375 1.3125 1.234375 3.703125q0 0.15625 0 0.4375l-7.21875 0q0.09375 1.59375 0.90625 2.453125q0.8125 0.84375 2.015625 0.84375q0.90625 0 1.546875 -0.46875q0.640625 -0.484375 1.015625 -1.515625zm-5.390625 -2.65625l5.40625 0q-0.109375 -1.21875 -0.625 -1.828125q-0.78125 -0.953125 -2.03125 -0.953125q-1.125 0 -1.90625 0.765625q-0.765625 0.75 -0.84375 2.015625zm9.125717 5.765625l0 -9.671875l1.46875 0l0 1.46875q0.5625 -1.03125 1.03125 -1.359375q0.484375 -0.328125 1.0625 -0.328125q0.828125 0 1.6875 0.53125l-0.5625 1.515625q-0.609375 -0.359375 -1.203125 -0.359375q-0.546875 0 -0.96875 0.328125q-0.421875 0.328125 -0.609375 0.890625q-0.28125 0.875 -0.28125 1.921875l0 5.0625l-1.625 0zm5.572052 -2.890625l1.625 -0.25q0.125 0.96875 0.75 1.5q0.625 0.515625 1.75 0.515625q1.125 0 1.671875 -0.453125q0.546875 -0.46875 0.546875 -1.09375q0 -0.546875 -0.484375 -0.875q-0.328125 -0.21875 -1.671875 -0.546875q-1.8125 -0.46875 -2.515625 -0.796875q-0.6875 -0.328125 -1.046875 -0.90625q-0.359375 -0.59375 -0.359375 -1.3125q0 -0.640625 0.296875 -1.1875q0.296875 -0.5625 0.8125 -0.921875q0.375 -0.28125 1.03125 -0.46875q0.671875 -0.203125 1.421875 -0.203125q1.140625 0 2.0 0.328125q0.859375 0.328125 1.265625 0.890625q0.4218712 0.5625 0.5781212 1.5l-1.6093712 0.21875q-0.109375 -0.75 -0.640625 -1.171875q-0.515625 -0.421875 -1.46875 -0.421875q-1.140625 0 -1.625 0.375q-0.46875 0.375 -0.46875 0.875q0 0.3125 0.1875 0.578125q0.203125 0.265625 0.640625 0.4375q0.234375 0.09375 1.4375 0.421875q1.75 0.453125 2.4375 0.75q0.6874962 0.296875 1.0781212 0.859375q0.390625 0.5625 0.390625 1.40625q0 0.828125 -0.484375 1.546875q-0.4687462 0.71875 -1.3749962 1.125q-0.90625 0.390625 -2.046875 0.390625q-1.875 0 -2.875 -0.78125q-0.984375 -0.78125 -1.25 -2.328125zm9.984371 6.59375l0 -13.375l1.484375 0l0 1.25q0.53125 -0.734375 1.1875 -1.09375q0.671875 -0.375 1.625 -0.375q1.234375 0 2.171875 0.640625q0.953125 0.625 1.4375 1.796875q0.484375 1.15625 0.484375 2.546875q0 1.484375 -0.53125 2.671875q-0.53125 1.1875 -1.546875 1.828125q-1.015625 0.625 -2.140625 0.625q-0.8125 0 -1.46875 -0.34375q-0.65625 -0.34375 -1.0625 -0.875l0 4.703125l-1.640625 0zm1.484375 -8.484375q0 1.859375 0.75 2.765625q0.765625 0.890625 1.828125 0.890625q1.09375 0 1.875 -0.921875q0.78125 -0.9375 0.78125 -2.875q0 -1.84375 -0.765625 -2.765625q-0.75 -0.921875 -1.8125 -0.921875q-1.046875 0 -1.859375 0.984375q-0.796875 0.96875 -0.796875 2.84375zm15.203842 3.59375q-0.921875 0.765625 -1.765625 1.09375q-0.828125 0.3125 -1.796875 0.3125q-1.59375 0 -2.453125 -0.78125q-0.859375 -0.78125 -0.859375 -1.984375q0 -0.71875 0.328125 -1.296875q0.328125 -0.59375 0.84375 -0.9375q0.53125 -0.359375 1.1875 -0.546875q0.46875 -0.125 1.453125 -0.25q1.984375 -0.234375 2.921875 -0.5625q0.015625 -0.34375 0.015625 -0.421875q0 -1.0 -0.46875 -1.421875q-0.625 -0.546875 -1.875 -0.546875q-1.15625 0 -1.703125 0.40625q-0.546875 0.40625 -0.8125 1.421875l-1.609375 -0.21875q0.21875 -1.015625 0.71875 -1.640625q0.5 -0.640625 1.453125 -0.984375q0.953125 -0.34375 2.1875 -0.34375q1.25 0 2.015625 0.296875q0.78125 0.28125 1.140625 0.734375q0.375 0.4375 0.515625 1.109375q0.078125 0.421875 0.078125 1.515625l0 2.1875q0 2.28125 0.109375 2.890625q0.109375 0.59375 0.40625 1.15625l-1.703125 0q-0.265625 -0.515625 -0.328125 -1.1875zm-0.140625 -3.671875q-0.890625 0.375 -2.671875 0.625q-1.015625 0.140625 -1.4375 0.328125q-0.421875 0.1875 -0.65625 0.53125q-0.21875 0.34375 -0.21875 0.78125q0 0.65625 0.5 1.09375q0.5 0.4375 1.453125 0.4375q0.9375 0 1.671875 -0.40625q0.75 -0.421875 1.09375 -1.140625q0.265625 -0.5625 0.265625 -1.640625l0 -0.609375zm10.516342 1.3125l1.609375 0.21875q-0.265625 1.65625 -1.359375 2.609375q-1.078125 0.9375 -2.671875 0.9375q-1.984375 0 -3.1875 -1.296875q-1.203125 -1.296875 -1.203125 -3.71875q0 -1.578125 0.515625 -2.75q0.515625 -1.171875 1.578125 -1.75q1.0625 -0.59375 2.3125 -0.59375q1.578125 0 2.578125 0.796875q1.0 0.796875 1.28125 2.265625l-1.59375 0.234375q-0.234375 -0.96875 -0.8125 -1.453125q-0.578125 -0.5 -1.390625 -0.5q-1.234375 0 -2.015625 0.890625q-0.78125 0.890625 -0.78125 2.8125q0 1.953125 0.75 2.84375q0.75 0.875 1.953125 0.875q0.96875 0 1.609375 -0.59375q0.65625 -0.59375 0.828125 -1.828125zm9.640625 0.4375l1.6875 0.203125q-0.40625 1.484375 -1.484375 2.3125q-1.078125 0.8125 -2.765625 0.8125q-2.125 0 -3.375 -1.296875q-1.234375 -1.3125 -1.234375 -3.671875q0 -2.453125 1.25 -3.796875q1.265625 -1.34375 3.265625 -1.34375q1.9375 0 3.15625 1.328125q1.234375 1.3125 1.234375 3.703125q0 0.15625 0 0.4375l-7.21875 0q0.09375 1.59375 0.90625 2.453125q0.8125 0.84375 2.015625 0.84375q0.90625 0 1.546875 -0.46875q0.640625 -0.484375 1.015625 -1.515625zm-5.390625 -2.65625l5.40625 0q-0.109375 -1.21875 -0.625 -1.828125q-0.78125 -0.953125 -2.03125 -0.953125q-1.125 0 -1.90625 0.765625q-0.765625 0.75 -0.84375 2.015625z" fill-rule="nonzero"/><path fill="#000000" fill-opacity="0.0" d="m0 153.52493l122.89764 0l0 36.0l-122.89764 0z" fill-rule="evenodd"/><path fill="#000000" d="m35.84408 180.44493l0 -13.359375l1.78125 0l0 6.625l6.625 -6.625l2.390625 0l-5.59375 5.421875l5.84375 7.9375l-2.328125 0l-4.765625 -6.765625l-2.171875 2.140625l0 4.625l-1.78125 0zm18.943573 -3.109375l1.6875 0.203125q-0.40625 1.484375 -1.484375 2.3125q-1.078125 0.8125 -2.765625 0.8125q-2.125 0 -3.375 -1.296875q-1.234375 -1.3125 -1.234375 -3.671875q0 -2.453125 1.25 -3.796875q1.265625 -1.34375 3.265625 -1.34375q1.9375 0 3.15625 1.328125q1.234375 1.3125 1.234375 3.703125q0 0.15625 0 0.4375l-7.21875 0q0.09375 1.59375 0.90625 2.453125q0.8125 0.84375 2.015625 0.84375q0.90625 0 1.546875 -0.46875q0.640625 -0.484375 1.015625 -1.515625zm-5.390625 -2.65625l5.40625 0q-0.109375 -1.21875 -0.625 -1.828125q-0.78125 -0.953125 -2.03125 -0.953125q-1.125 0 -1.90625 0.765625q-0.765625 0.75 -0.84375 2.015625zm9.125717 5.765625l0 -9.671875l1.46875 0l0 1.46875q0.5625 -1.03125 1.03125 -1.359375q0.484375 -0.328125 1.0625 -0.328125q0.828125 0 1.6875 0.53125l-0.5625 1.515625q-0.609375 -0.359375 -1.203125 -0.359375q-0.546875 0 -0.96875 0.328125q-0.421875 0.328125 -0.609375 0.890625q-0.28125 0.875 -0.28125 1.921875l0 5.0625l-1.625 0zm6.228306 0l0 -9.671875l1.46875 0l0 1.375q1.0625 -1.59375 3.078125 -1.59375q0.875 0 1.609375 0.3125q0.734375 0.3125 1.09375 0.828125q0.375 0.5 0.515625 1.203125q0.09375 0.453125 0.09375 1.59375l0 5.953125l-1.640625 0l0 -5.890625q0 -1.0 -0.203125 -1.484375q-0.1875 -0.5 -0.671875 -0.796875q-0.484375 -0.296875 -1.140625 -0.296875q-1.046875 0 -1.8125 0.671875q-0.75 0.65625 -0.75 2.515625l0 5.28125l-1.640625 0zm17.000717 -3.109375l1.6875 0.203125q-0.40625 1.484375 -1.484375 2.3125q-1.078125 0.8125 -2.765625 0.8125q-2.125 0 -3.375 -1.296875q-1.234375 -1.3125 -1.234375 -3.671875q0 -2.453125 1.25 -3.796875q1.265625 -1.34375 3.265625 -1.34375q1.9375 0 3.15625 1.328125q1.234375 1.3125 1.234375 3.703125q0 0.15625 0 0.4375l-7.21875 0q0.09375 1.59375 0.90625 2.453125q0.8125 0.84375 2.015625 0.84375q0.90625 0 1.546875 -0.46875q0.640625 -0.484375 1.015625 -1.515625zm-5.390625 -2.65625l5.40625 0q-0.109375 -1.21875 -0.625 -1.828125q-0.78125 -0.953125 -2.03125 -0.953125q-1.125 0 -1.90625 0.765625q-0.765625 0.75 -0.84375 2.015625zm9.094467 5.765625l0 -13.359375l1.640625 0l0 13.359375l-1.640625 0z" fill-rule="nonzero"/><path fill="#000000" fill-opacity="0.0" d="m402.65878 106.18372l0 0" fill-rule="evenodd"/><path stroke="#000000" stroke-width="1.0" stroke-linejoin="round" stroke-linecap="butt" d="m402.65878 106.18372l0 0" fill-rule="evenodd"/><path fill="#cfe2f3" d="m265.44882 144.17061l93.5748 0l0 26.393692l-93.5748 0z" fill-rule="evenodd"/><path stroke="#000000" stroke-width="1.0" stroke-linejoin="round" stroke-linecap="butt" d="m265.44882 144.17061l93.5748 0l0 26.393692l-93.5748 0z" fill-rule="evenodd"/><path fill="#000000" d="m282.60733 163.22745l0 -11.453125l1.515625 0l0 11.453125l-1.515625 0zm4.0078125 0l0 -8.296875l1.265625 0l0 1.171875q0.90625 -1.359375 2.640625 -1.359375q0.75 0 1.375 0.265625q0.625 0.265625 0.9375 0.703125q0.3125 0.4375 0.4375 1.046875q0.078125 0.390625 0.078125 1.359375l0 5.109375l-1.40625 0l0 -5.046875q0 -0.859375 -0.171875 -1.28125q-0.15625 -0.4375 -0.578125 -0.6875q-0.40625 -0.25 -0.96875 -0.25q-0.90625 0 -1.5625 0.578125q-0.640625 0.5625 -0.640625 2.15625l0 4.53125l-1.40625 0zm11.9609375 -1.265625l0.203125 1.25q-0.59375 0.125 -1.0625 0.125q-0.765625 0 -1.1875 -0.234375q-0.421875 -0.25 -0.59375 -0.640625q-0.171875 -0.40625 -0.171875 -1.671875l0 -4.765625l-1.03125 0l0 -1.09375l1.03125 0l0 -2.0625l1.40625 -0.84375l0 2.90625l1.40625 0l0 1.09375l-1.40625 0l0 4.84375q0 0.609375 0.0625 0.78125q0.078125 0.171875 0.25 0.28125q0.171875 0.09375 0.484375 0.09375q0.234375 0 0.609375 -0.0625zm7.0546875 -1.40625l1.453125 0.171875q-0.34375 1.28125 -1.28125 1.984375q-0.921875 0.703125 -2.359375 0.703125q-1.828125 0 -2.890625 -1.125q-1.0625 -1.125 -1.0625 -3.140625q0 -2.09375 1.078125 -3.25q1.078125 -1.15625 2.796875 -1.15625q1.65625 0 2.703125 1.140625q1.0625 1.125 1.0625 3.171875q0 0.125 0 0.375l-6.1875 0q0.078125 1.375 0.765625 2.109375q0.703125 0.71875 1.734375 0.71875q0.78125 0 1.328125 -0.40625q0.546875 -0.40625 0.859375 -1.296875zm-4.609375 -2.28125l4.625 0q-0.09375 -1.046875 -0.53125 -1.5625q-0.671875 -0.8125 -1.734375 -0.8125q-0.96875 0 -1.640625 0.65625q-0.65625 0.640625 -0.71875 1.71875zm7.8203125 4.953125l0 -8.296875l1.265625 0l0 1.25q0.484375 -0.875 0.890625 -1.15625q0.40625 -0.28125 0.90625 -0.28125q0.703125 0 1.4375 0.453125l-0.484375 1.296875q-0.515625 -0.296875 -1.03125 -0.296875q-0.453125 0 -0.828125 0.28125q-0.359375 0.265625 -0.515625 0.765625q-0.234375 0.75 -0.234375 1.640625l0 4.34375l-1.40625 0zm5.671875 0l0 -7.203125l-1.234375 0l0 -1.09375l1.234375 0l0 -0.890625q0 -0.828125 0.15625 -1.234375q0.203125 -0.546875 0.703125 -0.890625q0.515625 -0.34375 1.4375 -0.34375q0.59375 0 1.3125 0.140625l-0.203125 1.234375q-0.4375 -0.078125 -0.828125 -0.078125q-0.640625 0 -0.90625 0.28125q-0.265625 0.265625 -0.265625 1.015625l0 0.765625l1.609375 0l0 1.09375l-1.609375 0l0 7.203125l-1.40625 0zm9.5234375 -1.03125q-0.78125 0.671875 -1.5 0.953125q-0.71875 0.265625 -1.546875 0.265625q-1.375 0 -2.109375 -0.671875q-0.734375 -0.671875 -0.734375 -1.703125q0 -0.609375 0.28125 -1.109375q0.28125 -0.515625 0.71875 -0.8125q0.453125 -0.3125 1.015625 -0.46875q0.421875 -0.109375 1.25 -0.203125q1.703125 -0.203125 2.515625 -0.484375q0 -0.296875 0 -0.375q0 -0.859375 -0.390625 -1.203125q-0.546875 -0.484375 -1.609375 -0.484375q-0.984375 0 -1.46875 0.359375q-0.46875 0.34375 -0.6875 1.21875l-1.375 -0.1875q0.1875 -0.875 0.609375 -1.421875q0.4375 -0.546875 1.25 -0.828125q0.8125 -0.296875 1.875 -0.296875q1.0625 0 1.71875 0.25q0.671875 0.25 0.984375 0.625q0.3125 0.375 0.4375 0.953125q0.078125 0.359375 0.078125 1.296875l0 1.875q0 1.96875 0.078125 2.484375q0.09375 0.515625 0.359375 1.0l-1.46875 0q-0.21875 -0.4375 -0.28125 -1.03125zm-0.109375 -3.140625q-0.765625 0.3125 -2.296875 0.53125q-0.875 0.125 -1.234375 0.28125q-0.359375 0.15625 -0.5625 0.46875q-0.1875 0.296875 -0.1875 0.65625q0 0.5625 0.421875 0.9375q0.4375 0.375 1.25 0.375q0.8125 0 1.4375 -0.34375q0.640625 -0.359375 0.9375 -0.984375q0.234375 -0.46875 0.234375 -1.40625l0 -0.515625zm9.007782 1.125l1.390625 0.1875q-0.234375 1.421875 -1.171875 2.234375q-0.921875 0.8125 -2.28125 0.8125q-1.7030945 0 -2.7499695 -1.109375q-1.03125 -1.125 -1.03125 -3.203125q0 -1.34375 0.4375 -2.34375q0.453125 -1.015625 1.359375 -1.515625q0.9218445 -0.5 1.9843445 -0.5q1.359375 0 2.21875 0.6875q0.859375 0.671875 1.09375 1.9375l-1.359375 0.203125q-0.203125 -0.828125 -0.703125 -1.25q-0.484375 -0.421875 -1.1875 -0.421875q-1.0625 0 -1.7343445 0.765625q-0.65625 0.75 -0.65625 2.40625q0 1.671875 0.640625 2.4375q0.6405945 0.75 1.6718445 0.75q0.828125 0 1.375 -0.5q0.5625 -0.515625 0.703125 -1.578125zm8.265625 0.375l1.453125 0.171875q-0.34375 1.28125 -1.28125 1.984375q-0.921875 0.703125 -2.359375 0.703125q-1.828125 0 -2.890625 -1.125q-1.0625 -1.125 -1.0625 -3.140625q0 -2.09375 1.078125 -3.25q1.078125 -1.15625 2.796875 -1.15625q1.65625 0 2.703125 1.140625q1.0625 1.125 1.0625 3.171875q0 0.125 0 0.375l-6.1875 0q0.078125 1.375 0.765625 2.109375q0.703125 0.71875 1.734375 0.71875q0.78125 0 1.328125 -0.40625q0.546875 -0.40625 0.859375 -1.296875zm-4.609375 -2.28125l4.625 0q-0.09375 -1.046875 -0.53125 -1.5625q-0.671875 -0.8125 -1.734375 -0.8125q-0.96875 0 -1.640625 0.65625q-0.65625 0.640625 -0.71875 1.71875z" fill-rule="nonzero"/><path fill="#000000" fill-opacity="0.0" d="m265.44882 157.36745l-37.543304 0l0 -60.629913" fill-rule="evenodd"/><path stroke="#000000" stroke-width="1.0" stroke-linejoin="round" stroke-linecap="butt" d="m265.44882 157.36745l-37.543304 0l0 -54.629913" fill-rule="evenodd"/><path fill="#000000" stroke="#000000" stroke-width="1.0" stroke-linecap="butt" d="m229.55725 102.73753l-1.6517334 -4.538101l-1.6517334 4.538101z" fill-rule="evenodd"/></g></svg>